<svg width="15" height="15" viewBox="0 0 15 15" fill="none" xmlns="http://www.w3.org/2000/svg">
<path fill-rule="evenodd" clip-rule="evenodd" d="M0 7.78506C0 5.93517 0.790176 4.16105 2.1967 2.85299C3.60322 1.54492 5.51088 0.810059 7.5 0.810059C9.48912 0.810059 11.3968 1.54492 12.8033 2.85299C14.2098 4.16105 15 5.93517 15 7.78506C15 9.63494 14.2098 11.4091 12.8033 12.7171C11.3968 14.0252 9.48912 14.7601 7.5 14.7601C5.51088 14.7601 3.60322 14.0252 2.1967 12.7171C0.790176 11.4091 0 9.63494 0 7.78506V7.78506ZM7.5 1.81055C5.7962 1.81055 4.16217 2.44 2.9574 3.56044C1.75263 4.68088 1.0758 6.20052 1.0758 7.78506C1.0758 9.3696 1.75263 10.8892 2.9574 12.0097C4.16217 13.1301 5.7962 13.7596 7.5 13.7596C9.2038 13.7596 10.8378 13.1301 12.0426 12.0097C13.2474 10.8892 13.9242 9.3696 13.9242 7.78506C13.9242 6.20052 13.2474 4.68088 12.0426 3.56044C10.8378 2.44 9.2038 1.81055 7.5 1.81055V1.81055ZM10.1657 5.307C10.2719 5.40575 10.3315 5.53966 10.3315 5.67929C10.3315 5.81892 10.2719 5.95283 10.1657 6.05158L8.30062 7.78506L10.1657 9.51854C10.272 9.61742 10.3318 9.75152 10.3318 9.89135C10.3318 10.0312 10.272 10.1653 10.1657 10.2642C10.0594 10.363 9.91519 10.4186 9.76483 10.4186C9.61448 10.4186 9.47028 10.363 9.36396 10.2642L7.5 8.52963L5.63604 10.2642C5.5834 10.3131 5.5209 10.352 5.45212 10.3785C5.38334 10.405 5.30961 10.4186 5.23517 10.4186C5.16072 10.4186 5.087 10.405 5.01821 10.3785C4.94943 10.352 4.88693 10.3131 4.83429 10.2642C4.78165 10.2152 4.73989 10.1571 4.7114 10.0931C4.68291 10.0292 4.66824 9.96059 4.66824 9.89135C4.66824 9.82212 4.68291 9.75356 4.7114 9.68959C4.73989 9.62562 4.78165 9.5675 4.83429 9.51854L6.69938 7.78506L4.83429 6.05158C4.72797 5.9527 4.66824 5.81859 4.66824 5.67876C4.66824 5.53893 4.72797 5.40482 4.83429 5.30595C4.94061 5.20707 5.08481 5.15152 5.23517 5.15152C5.38552 5.15152 5.52972 5.20707 5.63604 5.30595L7.5 7.04048L9.36396 5.30595C9.41655 5.25691 9.47904 5.218 9.54783 5.19146C9.61661 5.16491 9.69036 5.15125 9.76483 5.15125C9.83931 5.15125 9.91305 5.16491 9.98184 5.19146C10.0506 5.218 10.1131 5.25691 10.1657 5.30595V5.307Z" fill="#C8E982"/>
</svg>
