<svg width="25" height="26" viewBox="0 0 25 26" fill="none" xmlns="http://www.w3.org/2000/svg">
<circle cx="12.5" cy="12.8628" r="12" fill="#C8E982" stroke="#151719"/>
<path d="M12.2932 9.0448C11.3843 9.0448 10.5126 9.39806 9.86988 10.0269C9.22716 10.6557 8.86609 11.5085 8.86609 12.3977C8.86609 13.287 9.22716 14.1398 9.86988 14.7686C10.5126 15.3974 11.3843 15.7507 12.2932 15.7507C13.2022 15.7507 14.0739 15.3974 14.7166 14.7686C15.3593 14.1398 15.7204 13.287 15.7204 12.3977C15.7204 11.5085 15.3593 10.6557 14.7166 10.0269C14.0739 9.39806 13.2022 9.0448 12.2932 9.0448ZM12.2932 14.5753C11.7028 14.5753 11.1364 14.3458 10.7189 13.9373C10.3014 13.5288 10.0668 12.9747 10.0668 12.397C10.0668 11.8193 10.3014 11.2653 10.7189 10.8568C11.1364 10.4483 11.7028 10.2188 12.2932 10.2188C12.8837 10.2188 13.4501 10.4483 13.8676 10.8568C14.2851 11.2653 14.5197 11.8193 14.5197 12.397C14.5197 12.9747 14.2851 13.5288 13.8676 13.9373C13.4501 14.3458 12.8837 14.5753 12.2932 14.5753Z" fill="#151719"/>
<path d="M15.8561 9.70318C16.2974 9.70318 16.6551 9.35322 16.6551 8.92151C16.6551 8.4898 16.2974 8.13983 15.8561 8.13983C15.4148 8.13983 15.0571 8.4898 15.0571 8.92151C15.0571 9.35322 15.4148 9.70318 15.8561 9.70318Z" fill="#151719"/>
<path d="M19.0108 8.19474C18.834 7.74816 18.5639 7.34261 18.2177 7.00404C17.8715 6.66548 17.4569 6.40136 17.0004 6.2286C16.4661 6.0324 15.9017 5.92631 15.3312 5.91485C14.5959 5.88348 14.3631 5.87451 12.4985 5.87451C10.6339 5.87451 10.3949 5.87451 9.6657 5.91485C9.09563 5.92572 8.53165 6.03183 7.99811 6.2286C7.54146 6.40116 7.12672 6.6652 6.78051 7.00379C6.43429 7.34239 6.16424 7.74804 5.98769 8.19474C5.78711 8.71736 5.67892 9.26957 5.66776 9.82771C5.63493 10.5463 5.625 10.7742 5.625 12.5991C5.625 14.4233 5.625 14.6557 5.66776 15.3706C5.67921 15.9293 5.78687 16.4806 5.98769 17.0043C6.16474 17.4508 6.43505 17.8563 6.78135 18.1949C7.12765 18.5334 7.54232 18.7975 7.99888 18.9704C8.5314 19.1745 9.09562 19.2882 9.66723 19.3066C10.4025 19.338 10.6354 19.3477 12.5 19.3477C14.3646 19.3477 14.6036 19.3477 15.3328 19.3066C15.9032 19.2952 16.4676 19.1894 17.0019 18.9936C17.4583 18.8204 17.8728 18.5561 18.219 18.2174C18.5651 17.8788 18.8353 17.4732 19.0123 17.0267C19.2131 16.5038 19.3208 15.9525 19.3322 15.3937C19.3651 14.6751 19.375 14.4473 19.375 12.6223C19.375 10.7973 19.375 10.5658 19.3322 9.85087C19.3234 9.28484 19.2146 8.72456 19.0108 8.19474ZM18.0808 15.3153C18.0759 15.7458 17.9955 16.1723 17.8433 16.5762C17.7287 16.8667 17.5531 17.1305 17.328 17.3507C17.1028 17.5708 16.8331 17.7424 16.5361 17.8544C16.1278 18.0026 15.6965 18.0812 15.261 18.0867C14.5356 18.1196 14.331 18.1278 12.471 18.1278C10.6095 18.1278 10.4193 18.1278 9.68021 18.0867C9.24493 18.0815 8.81383 18.0029 8.40585 17.8544C8.10782 17.7431 7.837 17.5718 7.61091 17.3516C7.38481 17.1314 7.20848 16.8673 7.09331 16.5762C6.94323 16.1766 6.86295 15.7552 6.85584 15.3295C6.82301 14.6198 6.81537 14.4196 6.81537 12.5999C6.81537 10.7794 6.81537 10.5934 6.85584 9.86955C6.86078 9.43928 6.9411 9.01303 7.09331 8.60933C7.32619 8.01994 7.80341 7.55604 8.40585 7.33044C8.81403 7.18264 9.24501 7.10407 9.68021 7.09812C10.4063 7.066 10.6102 7.05704 12.471 7.05704C14.3318 7.05704 14.5226 7.05704 15.261 7.09812C15.6965 7.10325 16.1279 7.18184 16.5361 7.33044C16.8331 7.4427 17.1028 7.61446 17.3279 7.8347C17.553 8.05494 17.7286 8.3188 17.8433 8.60933C17.9934 9.00895 18.0737 9.43042 18.0808 9.8561C18.1136 10.5665 18.122 10.766 18.122 12.5864C18.122 14.4062 18.122 14.6019 18.0892 15.316H18.0808V15.3153Z" fill="#151719"/>
</svg>
