<svg width="146" height="146" viewBox="0 0 146 146" fill="none" xmlns="http://www.w3.org/2000/svg">
<circle cx="73" cy="73" r="72.5" fill="#C8E982" stroke="white"/>
<circle cx="73" cy="73" r="58.4" fill="white"/>
<path d="M65.46 112V119H64.74V112.64H63.09V112H65.46ZM69.3133 111.94C70.2399 111.94 70.9499 112.247 71.4433 112.86C71.9366 113.467 72.1833 114.327 72.1833 115.44C72.1833 116.22 72.0499 116.88 71.7833 117.42C71.5166 117.96 71.1433 118.37 70.6633 118.65C70.1833 118.923 69.6233 119.06 68.9833 119.06C68.2899 119.06 67.7366 118.933 67.3233 118.68L67.6133 118.1C67.9466 118.32 68.3999 118.43 68.9733 118.43C69.7466 118.43 70.3533 118.187 70.7933 117.7C71.2333 117.207 71.4533 116.493 71.4533 115.56C71.4533 115.387 71.4433 115.197 71.4233 114.99C71.2499 115.37 70.9733 115.667 70.5933 115.88C70.2133 116.087 69.7766 116.19 69.2833 116.19C68.8233 116.19 68.4133 116.103 68.0533 115.93C67.6999 115.757 67.4233 115.513 67.2233 115.2C67.0233 114.88 66.9233 114.51 66.9233 114.09C66.9233 113.663 67.0266 113.287 67.2333 112.96C67.4399 112.633 67.7233 112.383 68.0833 112.21C68.4499 112.03 68.8599 111.94 69.3133 111.94ZM69.3933 115.58C69.7466 115.58 70.0566 115.513 70.3233 115.38C70.5966 115.247 70.8099 115.063 70.9633 114.83C71.1166 114.597 71.1933 114.337 71.1933 114.05C71.1933 113.783 71.1199 113.537 70.9733 113.31C70.8333 113.083 70.6233 112.9 70.3433 112.76C70.0633 112.62 69.7299 112.55 69.3433 112.55C68.8366 112.55 68.4233 112.69 68.1033 112.97C67.7899 113.243 67.6333 113.61 67.6333 114.07C67.6333 114.53 67.7899 114.897 68.1033 115.17C68.4233 115.443 68.8533 115.58 69.3933 115.58ZM75.5094 115C76.2427 115.04 76.7994 115.24 77.1794 115.6C77.566 115.953 77.7594 116.417 77.7594 116.99C77.7594 117.39 77.6627 117.747 77.4694 118.06C77.276 118.367 76.9894 118.61 76.6094 118.79C76.2294 118.97 75.766 119.06 75.2194 119.06C74.7127 119.06 74.2327 118.98 73.7794 118.82C73.3327 118.653 72.9727 118.433 72.6994 118.16L73.0494 117.59C73.2827 117.83 73.5927 118.027 73.9794 118.18C74.366 118.327 74.7794 118.4 75.2194 118.4C75.7927 118.4 76.236 118.277 76.5494 118.03C76.8627 117.777 77.0194 117.43 77.0194 116.99C77.0194 116.557 76.8627 116.217 76.5494 115.97C76.236 115.723 75.7627 115.6 75.1294 115.6H74.6294V115.07L76.5694 112.64H72.9894V112H77.4894V112.51L75.5094 115ZM84.7239 117.16H83.3239V119H82.6039V117.16H78.6539V116.64L82.3639 112H83.1639L79.5839 116.52H82.6239V114.9H83.3239V116.52H84.7239V117.16Z" fill="black"/>
<g clip-path="url(#clip0)">
<path d="M73.9895 42.9972H72.0105V61.3917H73.9895V42.9972Z" fill="#C8EB82"/>
<path d="M88.7198 50.9295C88.4666 50.4499 87.8724 50.2641 87.3844 50.5144L76.2642 56.2497C74.8495 56.9799 73.7372 58.0967 73 59.4229C72.2629 58.0967 71.1505 56.9799 69.7358 56.2497L58.6156 50.5144C58.1276 50.2641 57.5334 50.4499 57.2802 50.9295C57.028 51.408 57.2155 51.9993 57.6996 52.2491L68.8198 57.9844C70.7881 58.9999 72.0105 60.9934 72.0105 63.1875V78.9986H73.9895V63.1875C73.9895 60.9934 75.2119 58.9997 77.1802 57.9844L88.3004 52.2491C88.7845 51.9993 88.972 51.408 88.7198 50.9295Z" fill="#AEDB81"/>
<path d="M96.6357 63.8739C96.3825 63.3949 95.7883 63.2081 95.3003 63.4589L78.3919 72.1797C75.9379 73.4457 74.0636 75.4728 72.9999 77.8836C71.9361 75.4728 70.062 73.4457 67.6079 72.1797L50.6997 63.4589C50.2117 63.2081 49.6175 63.3949 49.3643 63.8739C49.1121 64.3525 49.2996 64.9438 49.7837 65.1936L66.6932 73.915C69.9614 75.6006 72.0106 78.9426 72.0106 82.5866V93.831C72.0106 94.2991 71.6776 94.7164 71.21 94.7905C69.3901 95.0788 67.8161 95.7962 66.7213 96.7769C66.1654 97.275 65.4658 97.5838 64.7155 97.5838H62.1156C61.5687 97.5838 61.1261 98.0219 61.1261 98.562C61.1261 99.1022 61.5687 99.5402 62.1156 99.5402H83.8844C84.4313 99.5402 84.8739 99.1022 84.8739 98.562C84.8739 98.0219 84.4313 97.5838 83.8844 97.5838H81.2845C80.5343 97.5838 79.8347 97.2748 79.2787 96.7769C78.1838 95.7961 76.6098 95.0786 74.79 94.7905C74.3224 94.7164 73.9894 94.2991 73.9894 93.831V82.588C73.9894 78.9432 76.0391 75.6005 79.3079 73.9145L96.2164 65.1936C96.7005 64.9438 96.8879 64.3525 96.6357 63.8739Z" fill="#95CC81"/>
<path d="M69.8421 95.0986C68.6106 95.4669 67.5447 96.0439 66.7367 96.7629C66.1742 97.2634 65.4722 97.5838 64.7156 97.5838H62.1157C61.5688 97.5838 61.1262 98.0219 61.1262 98.562C61.1262 99.1022 61.5688 99.5402 62.1157 99.5402H70.0317C70.0317 98.1775 70.3918 97.1707 70.8611 96.4372C71.3124 95.7318 70.6504 94.857 69.8421 95.0986Z" fill="#7DBD80"/>
<path d="M54.4675 60.5786C54.1707 60.4577 53.8351 60.5776 53.685 60.8581C53.1508 61.8568 53.0386 63.1452 53.4961 64.3971C53.9537 65.6491 54.873 66.5691 55.9297 66.9995C56.2264 67.1204 56.5621 67.0005 56.7121 66.72C57.2464 65.7212 57.3585 64.4329 56.9011 63.1809C56.4436 61.929 55.5242 61.0092 54.4675 60.5786Z" fill="#95CC81"/>
<path d="M63.1248 64.5939C63.4085 64.7422 63.5298 65.074 63.4076 65.3674C62.972 66.412 62.0414 67.3208 60.775 67.7731C59.5087 68.2255 58.2053 68.1144 57.195 67.5863C56.9113 67.438 56.79 67.1062 56.9123 66.8128C57.3478 65.7683 58.2784 64.8595 59.5448 64.4071C60.8111 63.9548 62.1145 64.0658 63.1248 64.5939Z" fill="#AEDB81"/>
<path d="M62.6252 48.8895C62.287 48.7284 61.8716 48.8768 61.7158 49.2144C61.3425 50.0227 61.2841 51.0267 61.6413 52.004C61.9985 52.9814 62.6925 53.7166 63.5023 54.1023C63.8406 54.2635 64.2559 54.1151 64.4118 53.7774C64.7851 52.9691 64.8435 51.9652 64.4862 50.9878C64.129 50.0105 63.435 49.2754 62.6252 48.8895Z" fill="#95CC81"/>
<path d="M69.5172 52.0862C69.8587 52.2403 70.0088 52.6508 69.8458 52.9852C69.4556 53.7856 68.7117 54.4718 67.7232 54.8249C66.7347 55.178 65.719 55.1203 64.9013 54.7513C64.5597 54.5971 64.4096 54.1866 64.5726 53.8523C64.9628 53.0518 65.7067 52.3657 66.6952 52.0125C67.6839 51.6593 68.6996 51.717 69.5172 52.0862Z" fill="#AEDB81"/>
<path d="M91.5325 60.5786C91.8292 60.4577 92.1649 60.5776 92.3149 60.8581C92.8492 61.8568 92.9613 63.1452 92.5039 64.3971C92.0463 65.6491 91.127 66.5691 90.0703 66.9995C89.7736 67.1204 89.4379 67.0005 89.2879 66.72C88.7536 65.7212 88.6415 64.4329 89.0989 63.1809C89.5565 61.9291 90.4758 61.0092 91.5325 60.5786Z" fill="#AEDB81"/>
<path d="M82.8752 64.5939C82.5915 64.7422 82.4702 65.074 82.5924 65.3674C83.028 66.412 83.9586 67.3208 85.2249 67.7731C86.4914 68.2255 87.7947 68.1144 88.805 67.5863C89.0887 67.438 89.21 67.1062 89.0877 66.8128C88.6522 65.7683 87.7215 64.8595 86.4552 64.4071C85.1889 63.9548 83.8855 64.0658 82.8752 64.5939Z" fill="#95CC81"/>
<path d="M83.3748 48.8895C83.713 48.7284 84.1284 48.8768 84.2842 49.2144C84.6575 50.0227 84.7159 51.0267 84.3587 52.004C84.0015 52.9814 83.3075 53.7166 82.4977 54.1023C82.1594 54.2635 81.7441 54.1151 81.5882 53.7774C81.2149 52.9691 81.1565 51.9652 81.5137 50.9878C81.871 50.0106 82.5649 49.2754 83.3748 48.8895Z" fill="#AEDB81"/>
<path d="M76.4828 52.0862C76.1413 52.2403 75.9912 52.6508 76.1542 52.9852C76.5444 53.7856 77.2883 54.4718 78.2768 54.8249C79.2655 55.178 80.281 55.1203 81.0987 54.7513C81.4403 54.5971 81.5904 54.1866 81.4274 53.8523C81.0372 53.0518 80.2933 52.3657 79.3048 52.0125C78.3161 51.6593 77.3004 51.717 76.4828 52.0862Z" fill="#95CC81"/>
<path d="M68.1064 37.9601C67.8267 37.954 67.577 38.1766 67.5546 38.4524C67.4571 39.6478 67.9076 40.9904 68.9052 42.0835C69.9027 43.1765 71.2076 43.7571 72.4205 43.7838C72.7002 43.7899 72.95 43.5673 72.9724 43.2915C73.0698 42.0961 72.6193 40.7535 71.6218 39.6604C70.6242 38.5674 69.3193 37.9868 68.1064 37.9601Z" fill="#AEDB81"/>
<path d="M77.8794 37.9601C78.1591 37.954 78.4089 38.1766 78.4313 38.4524C78.5288 39.6478 78.0782 40.9904 77.0807 42.0835C76.0832 43.1765 74.7783 43.7571 73.5654 43.7838C73.2857 43.7899 73.0359 43.5673 73.0135 43.2915C72.9161 42.0961 73.3666 40.7535 74.3641 39.6604C75.3617 38.5674 76.6667 37.9868 77.8794 37.9601Z" fill="#C8EB82"/>
<path d="M55.1891 73.1296C56.8285 73.1296 58.1575 71.8158 58.1575 70.1952C58.1575 68.5745 56.8285 67.2607 55.1891 67.2607C53.5497 67.2607 52.2207 68.5745 52.2207 70.1952C52.2207 71.8158 53.5497 73.1296 55.1891 73.1296Z" fill="#FFE07D"/>
<path d="M56.1992 72.1311C54.5597 72.1311 53.2307 70.8172 53.2307 69.1967C53.2307 68.6432 53.3874 68.1238 53.6569 67.6821C52.7953 68.1956 52.2207 69.1281 52.2207 70.1952C52.2207 71.8159 53.5498 73.1296 55.1891 73.1296C56.2686 73.1296 57.2122 72.5618 57.7317 71.71C57.2848 71.9764 56.7592 72.1311 56.1992 72.1311Z" fill="#FFE606"/>
<path d="M90.8109 73.1296C92.4503 73.1296 93.7793 71.8158 93.7793 70.1952C93.7793 68.5745 92.4503 67.2607 90.8109 67.2607C89.1715 67.2607 87.8425 68.5745 87.8425 70.1952C87.8425 71.8158 89.1715 73.1296 90.8109 73.1296Z" fill="#FFE07D"/>
<path d="M91.821 72.1311C90.1815 72.1311 88.8526 70.8172 88.8526 69.1967C88.8526 68.6432 89.0078 68.1225 89.2773 67.6807C88.4157 68.1943 87.8425 69.1281 87.8425 70.1953C87.8425 71.816 89.1716 73.1298 90.8109 73.1298C91.8905 73.1298 92.834 72.5618 93.3534 71.71C92.9065 71.9764 92.3809 72.1311 91.821 72.1311Z" fill="#FFE606"/>
<path d="M83.0186 58.335C84.1116 58.335 84.9977 57.4591 84.9977 56.3786C84.9977 55.2981 84.1116 54.4222 83.0186 54.4222C81.9256 54.4222 81.0396 55.2981 81.0396 56.3786C81.0396 57.4591 81.9256 58.335 83.0186 58.335Z" fill="#FFE07D"/>
<path d="M83.6921 57.6693C82.5991 57.6693 81.713 56.7934 81.713 55.7129C81.713 55.3439 81.8168 54.997 81.9965 54.7025C81.4221 55.0449 81.0397 55.6672 81.0397 56.3786C81.0397 57.459 81.9257 58.335 83.0188 58.335C83.7384 58.335 84.3671 57.956 84.7135 57.3882C84.4154 57.5657 84.0653 57.6693 83.6921 57.6693Z" fill="#FFE606"/>
<path d="M63.0173 58.335C64.1102 58.335 64.9963 57.4591 64.9963 56.3786C64.9963 55.2981 64.1102 54.4222 63.0173 54.4222C61.9243 54.4222 61.0382 55.2981 61.0382 56.3786C61.0382 57.4591 61.9243 58.335 63.0173 58.335Z" fill="#FFE07D"/>
<path d="M63.6905 57.6693C62.5976 57.6693 61.7115 56.7934 61.7115 55.7129C61.7115 55.3439 61.816 54.9979 61.9957 54.7033C61.4213 55.0457 61.0381 55.6672 61.0381 56.3786C61.0381 57.459 61.9241 58.335 63.0171 58.335C63.7368 58.335 64.3658 57.9565 64.7122 57.3885C64.4143 57.5662 64.0639 57.6693 63.6905 57.6693Z" fill="#FFE606"/>
</g>
<path d="M84.7665 100.426C84.7652 99.9372 84.4027 99.5417 83.955 99.5402H62.045C61.5974 99.5417 61.2348 99.9372 61.2335 100.426V101.311H68.9629C68.9142 101.776 68.6099 102.519 67.3196 103.081C67.2486 103.112 67.1873 103.147 67.1224 103.18C67.0971 103.129 67.0627 103.084 67.0214 103.047C66.6822 102.744 65.4816 101.823 64.2542 102.715C64.02 102.93 63.7201 103.04 63.4148 103.023C63.333 103.004 63.2612 102.951 63.2147 102.876C63.112 102.658 62.8672 102.573 62.668 102.685C62.4688 102.797 62.3906 103.064 62.4933 103.282C62.6426 103.576 62.8961 103.79 63.1944 103.875C63.3004 103.905 63.4095 103.92 63.519 103.919C63.9479 103.894 64.3604 103.731 64.705 103.451C65.2564 103.107 65.9484 103.189 66.4185 103.656C66.0721 103.963 65.8273 104.385 65.7214 104.859C65.7129 104.859 65.7056 104.853 65.6971 104.853C64.0923 104.853 63.6683 106.012 63.6683 106.624C63.6683 106.868 63.85 107.067 64.0741 107.067C64.2982 107.067 64.4798 106.868 64.4798 106.624C64.4798 106.592 64.4904 105.932 65.3112 105.773C65.3648 106.385 65.5494 107.065 66.1024 107.065C66.3033 107.065 66.474 106.905 66.5039 106.688C66.5337 106.472 66.4137 106.264 66.2217 106.2C66.138 105.907 66.0977 105.601 66.1024 105.295C66.1024 105.28 66.0959 105.268 66.0947 105.254C66.9139 104.438 67.5935 104.896 68.5827 104.693C68.554 105.2 68.7288 105.695 69.0615 106.05C69.2138 106.2 69.3149 106.402 69.3483 106.623C69.3483 106.867 69.53 107.065 69.7541 107.065C69.9782 107.065 70.1598 106.867 70.1598 106.623C70.1316 106.165 69.9439 105.736 69.6352 105.424C69.3898 105.126 69.3221 104.702 69.4607 104.331C70.57 103.63 70.8686 102.076 70.947 101.311H71.0078C71.1326 102.311 71.5462 103.241 72.1885 103.967C72.6657 104.407 73.2217 104.735 73.8212 104.928C73.8297 104.988 73.8496 105.046 73.8797 105.098C74.066 105.383 74.1645 105.725 74.1608 106.075C74.1442 106.145 74.0976 106.201 74.0359 106.227C73.8353 106.336 73.7539 106.602 73.8541 106.821C73.9543 107.039 74.198 107.128 74.3986 107.019C74.6685 106.88 74.8685 106.618 74.9451 106.303C75.0071 105.99 74.9869 105.664 74.8867 105.363C75.43 105.431 75.9436 105.67 76.3648 106.05L77.1763 106.936C77.3355 107.103 77.5886 107.101 77.7451 106.93C77.9016 106.76 77.9038 106.483 77.75 106.31L76.9385 105.424C76.1068 104.517 74.6177 104.421 74.2858 104.411C74.0139 103.962 73.8188 103.464 73.7101 102.94C73.5991 102.406 73.5636 101.857 73.6046 101.311H74.4201L74.416 101.373C74.381 101.829 74.4097 102.289 74.5013 102.736C74.5048 102.759 74.5102 102.781 74.5175 102.803C75.3787 102.723 76.2455 102.84 77.0631 103.146C77.0795 103.27 77.143 103.38 77.238 103.45C77.5764 103.696 78.2747 104.362 78.2747 104.852C78.2283 105.335 78.3844 105.816 78.6993 106.159C79.0143 106.503 79.4546 106.673 79.8976 106.623C80.1217 106.623 80.3034 106.425 80.3034 106.18C80.3034 105.936 80.1217 105.737 79.8976 105.737C79.3138 105.737 79.0861 105.489 79.0861 104.852C79.0412 104.302 78.8113 103.789 78.4406 103.413C79.0176 103.395 79.5867 103.562 80.0782 103.892C81.5007 104.926 82.1069 104.396 82.2132 104.28C82.3641 104.114 82.3708 103.849 82.2285 103.674C82.0862 103.499 81.8439 103.475 81.6752 103.619C81.6305 103.635 81.306 103.722 80.5286 103.156C79.6356 102.585 78.5822 102.39 77.5666 102.607C77.2976 102.071 76.9018 101.623 76.4204 101.311H84.7665V100.426Z" fill="#95CC81"/>
<path d="M4.84786 54.0752L6.58036 49.8053L7.10576 50.0185L5.62027 53.6796L7.53005 54.4545L8.30494 52.5447C8.58467 51.8553 8.9385 51.3902 9.36642 51.1494C9.7966 50.9031 10.2813 50.8893 10.8206 51.1082C11.3822 51.336 11.7341 51.7054 11.8764 52.2164C12.021 52.7219 11.9466 53.336 11.6534 54.0587L10.6856 56.4439L4.84786 54.0752ZM11.158 53.8674C11.3768 53.3281 11.4386 52.8806 11.3434 52.5247C11.2505 52.1632 11.0011 51.9001 10.5953 51.7355C10.195 51.573 9.84223 51.5886 9.5371 51.782C9.22867 51.9677 8.96279 52.3357 8.73946 52.8861L8.02209 54.6542L10.4406 55.6355L11.158 53.8674Z" fill="black"/>
<path d="M16.5073 44.5879C16.2687 44.9765 15.9667 45.2733 15.6014 45.4785C15.2309 45.6805 14.8348 45.7752 14.413 45.7627C13.9912 45.7501 13.5835 45.6229 13.1898 45.3812C12.7961 45.1394 12.4982 44.8333 12.2962 44.4629C12.0942 44.0924 12.002 43.6978 12.0197 43.2792C12.0374 42.8606 12.1655 42.4569 12.4041 42.0684C12.6427 41.6798 12.9447 41.3829 13.3101 41.1778C13.6754 40.9726 14.0674 40.8789 14.4861 40.8965C14.9079 40.9091 15.3156 41.0363 15.7093 41.278C16.103 41.5198 16.4009 41.8259 16.6029 42.1963C16.808 42.5617 16.9043 42.9553 16.8918 43.377C16.8741 43.7957 16.7459 44.1993 16.5073 44.5879ZM16.0241 44.2912C16.2 44.0049 16.293 43.71 16.3034 43.4065C16.3117 43.0948 16.235 42.8012 16.0731 42.5259C15.9113 42.2505 15.677 42.0186 15.3702 41.8302C15.0635 41.6418 14.7507 41.5378 14.4319 41.518C14.1131 41.4983 13.8191 41.5642 13.55 41.7158C13.2789 41.8592 13.0555 42.074 12.8796 42.3603C12.7038 42.6467 12.6117 42.9457 12.6034 43.2574C12.5931 43.5609 12.6673 43.8528 12.8259 44.1333C12.9878 44.4087 13.2221 44.6406 13.5289 44.829C13.8356 45.0174 14.1484 45.1214 14.4672 45.1412C14.7892 45.1558 15.0857 45.0914 15.3568 44.9481C15.6259 44.7965 15.8483 44.5775 16.0241 44.2912Z" fill="black"/>
<path d="M20.332 32.3566L19.1761 33.7247L22.3591 36.414L21.9467 36.9021L18.7637 34.2127L17.6078 35.5808L17.1747 35.2149L19.8989 31.9907L20.332 32.3566Z" fill="black"/>
<path d="M25.9221 25.9669C26.3874 25.5602 26.8469 25.3656 27.3007 25.3833C27.7506 25.3965 28.1749 25.6312 28.5738 26.0875L30.5049 28.2964L30.0441 28.6992L29.5584 28.1436C29.6119 28.4235 29.5779 28.7083 29.4564 28.9978C29.3395 29.2833 29.1364 29.5525 28.8473 29.8052C28.4498 30.1527 28.0507 30.3343 27.6499 30.3499C27.2492 30.3656 26.9126 30.2175 26.6401 29.9058C26.3755 29.6032 26.2706 29.2645 26.3256 28.8897C26.385 28.511 26.6541 28.1124 27.1329 27.6938L28.2645 26.7045L28.0749 26.4877C27.8064 26.1805 27.5172 26.0229 27.2073 26.0149C26.8935 26.0023 26.5717 26.1402 26.242 26.4285C26.0161 26.6259 25.8329 26.8539 25.6922 27.1123C25.5476 27.3663 25.458 27.6239 25.4235 27.8852L24.8927 27.7156C24.9391 27.4041 25.0533 27.0971 25.2351 26.7946C25.4131 26.4877 25.6421 26.2118 25.9221 25.9669ZM28.5901 29.3606C28.8612 29.1237 29.0405 28.8593 29.1281 28.5675C29.2118 28.2712 29.1984 27.9642 29.0879 27.6464L28.5784 27.0637L27.4604 28.041C26.8506 28.5742 26.7313 29.053 27.1025 29.4776C27.2842 29.6854 27.5074 29.7812 27.7721 29.765C28.0329 29.7442 28.3056 29.6094 28.5901 29.3606Z" fill="black"/>
<path d="M33.533 20.0994L34.0768 19.7636L35.1785 21.5479L37.7132 19.9828L36.6115 18.1985L37.1552 17.8628L39.6423 21.8908L39.0986 22.2265L38.0016 20.4499L35.4669 22.015L36.5639 23.7916L36.0202 24.1274L33.533 20.0994Z" fill="black"/>
<path d="M44.2526 14.2136L44.8458 13.9761L46.2438 17.4687L47.7786 12.8022L48.305 12.5915L50.0642 16.9864L49.471 17.2239L48.0729 13.7313L46.5465 18.3945L46.0118 18.6085L44.2526 14.2136Z" fill="black"/>
<path d="M59.294 9.51069L60.3064 14.1352L59.6821 14.2718L59.2606 12.3464C58.7786 12.6976 58.2797 12.9297 57.7639 13.0426C57.2071 13.1645 56.7458 13.1334 56.3799 12.9494C56.0128 12.7595 55.7735 12.4096 55.6618 11.8997L55.3289 10.3787L55.9531 10.2421L56.2784 11.7279C56.3541 12.0737 56.5232 12.3131 56.7857 12.446C57.0469 12.5731 57.3738 12.5936 57.7665 12.5077C58.2003 12.4127 58.6617 12.1919 59.1509 11.8453L58.6698 9.64734L59.294 9.51069Z" fill="black"/>
<path d="M71.142 10.7585L67.1885 10.9859C67.2527 11.4751 67.4643 11.8626 67.8233 12.1484C68.182 12.4283 68.6219 12.5532 69.1431 12.5232C69.4366 12.5063 69.7032 12.4399 69.9429 12.3239C70.1823 12.202 70.386 12.034 70.554 11.82L70.9372 12.2126C70.742 12.4763 70.4895 12.6831 70.1796 12.8332C69.8757 12.9829 69.535 13.0686 69.1577 13.0903C68.6725 13.1182 68.2353 13.0412 67.8462 12.8593C67.4628 12.671 67.1557 12.4002 66.925 12.0468C66.6944 11.6935 66.5657 11.2862 66.5392 10.825C66.5127 10.3637 66.5877 9.94474 66.7644 9.56797C66.947 9.19085 67.2062 8.89047 67.5419 8.66682C67.8836 8.44282 68.2731 8.31824 68.7104 8.29309C69.1476 8.26793 69.5458 8.34718 69.905 8.53086C70.2641 8.71453 70.5531 8.98338 70.7718 9.3374C70.9901 9.68544 71.1127 10.0931 71.1396 10.5603L71.142 10.7585ZM68.7419 8.84118C68.2866 8.86737 67.9117 9.03619 67.6171 9.34762C67.3282 9.65272 67.1762 10.0401 67.1611 10.5097L70.5126 10.3169C70.4438 9.85209 70.2454 9.48488 69.9173 9.21528C69.5949 8.93934 69.2031 8.81464 68.7419 8.84118Z" fill="black"/>
<path d="M79.5612 13.3132C79.0955 13.2662 78.6879 13.1226 78.3383 12.8823C77.9946 12.6425 77.7367 12.3301 77.5645 11.9448C77.3929 11.5536 77.3303 11.1282 77.3767 10.6685C77.4231 10.2089 77.5691 9.8075 77.8148 9.46443C78.0605 9.12137 78.3756 8.86672 78.7603 8.7005C79.1509 8.53488 79.579 8.47557 80.0446 8.52256C80.4506 8.56352 80.8036 8.68056 81.1037 8.87367C81.4104 9.06142 81.6409 9.31685 81.7953 9.63998L81.2881 9.91445C81.1564 9.66597 80.9769 9.47297 80.7496 9.33545C80.5228 9.19196 80.2692 9.10605 79.9886 9.07774C79.6483 9.0434 79.333 9.08998 79.0428 9.21748C78.7591 9.33961 78.5255 9.53314 78.3419 9.79805C78.1644 10.0636 78.0575 10.3754 78.0214 10.7336C77.9846 11.0977 78.0267 11.4276 78.1477 11.7233C78.2752 12.0135 78.4654 12.2498 78.7184 12.4322C78.9779 12.6091 79.2778 12.7148 79.6181 12.7491C79.8987 12.7774 80.1641 12.7469 80.4143 12.6576C80.6645 12.5682 80.879 12.415 81.0577 12.1979L81.4998 12.5681C81.284 12.8539 81.0068 13.0611 80.6682 13.1898C80.3301 13.3124 79.9611 13.3536 79.5612 13.3132Z" fill="black"/>
<path d="M90.1425 13.0291L89.0984 12.7529L88.5598 14.7888L87.942 14.6254L89.1528 10.0488L89.7705 10.2122L89.2388 12.2221L90.2916 12.5006L92.4329 10.9166L93.1029 11.0938L90.7149 12.836L92.0227 15.7049L91.2918 15.5116L90.1425 13.0291Z" fill="black"/>
<path d="M99.8583 13.4558L100.441 13.7186L98.8936 17.1478L103.32 15.0179L103.837 15.251L101.89 19.5661L101.308 19.3033L102.855 15.8742L98.4364 18.0078L97.9113 17.7709L99.8583 13.4558Z" fill="black"/>
<path d="M110.734 19.0474L111.263 19.4062L109.15 22.519L113.877 21.1802L114.346 21.4986L111.688 25.4157L111.159 25.0568L113.271 21.944L108.552 23.2879L108.076 22.9645L110.734 19.0474ZM112.898 19.6893C112.561 19.4602 112.35 19.1939 112.266 18.8903C112.182 18.5867 112.242 18.2793 112.446 17.9682L112.825 18.2259C112.699 18.4229 112.662 18.6265 112.715 18.8366C112.772 19.0417 112.907 19.2168 113.121 19.3616C113.334 19.5065 113.547 19.5674 113.758 19.5441C113.978 19.5193 114.156 19.4118 114.292 19.2216L114.672 19.4793C114.458 19.7837 114.192 19.9513 113.874 19.9819C113.561 20.016 113.236 19.9184 112.898 19.6893Z" fill="black"/>
<path d="M123.793 36.7948C123.494 36.4352 123.304 36.0471 123.222 35.6307C123.145 35.2189 123.18 34.8152 123.326 34.4197C123.478 34.0202 123.731 33.6727 124.086 33.3771C124.441 33.0815 124.827 32.8972 125.242 32.8244C125.658 32.7516 126.061 32.7905 126.452 32.9412C126.847 33.0966 127.194 33.3541 127.494 33.7137C127.755 34.0272 127.925 34.358 128.004 34.7061C128.091 35.0549 128.077 35.3986 127.961 35.7374L127.406 35.5781C127.486 35.3085 127.493 35.045 127.427 34.7877C127.366 34.5264 127.245 34.2875 127.065 34.0708C126.846 33.808 126.588 33.6204 126.292 33.5081C126.004 33.3966 125.701 33.3712 125.385 33.4317C125.072 33.4969 124.778 33.6447 124.501 33.8751C124.22 34.1093 124.019 34.3742 123.898 34.6699C123.786 34.9664 123.756 35.2683 123.809 35.5756C123.87 35.8837 124.01 36.1692 124.229 36.432C124.41 36.6487 124.62 36.8128 124.862 36.9243C125.103 37.0357 125.363 37.0766 125.643 37.0467L125.699 37.6206C125.345 37.6735 125.002 37.6272 124.67 37.4819C124.343 37.3328 124.051 37.1037 123.793 36.7948Z" fill="black"/>
<path d="M133.79 42.5638C134.105 43.095 134.213 43.5822 134.114 44.0253C134.019 44.4653 133.712 44.8402 133.191 45.1498L130.669 46.649L130.356 46.1229L130.99 45.7458C130.705 45.7477 130.432 45.6627 130.169 45.4909C129.909 45.3241 129.681 45.0757 129.485 44.7456C129.215 44.2918 129.109 43.8663 129.166 43.4694C129.223 43.0724 129.43 42.7682 129.786 42.5566C130.131 42.3512 130.483 42.3094 130.842 42.4313C131.204 42.5583 131.547 42.8952 131.872 43.4419L132.64 44.7339L132.888 44.5867C133.238 44.3782 133.446 44.1224 133.51 43.8191C133.579 43.5127 133.502 43.1713 133.278 42.7948C133.124 42.5369 132.933 42.3154 132.705 42.1303C132.481 41.9421 132.244 41.8073 131.993 41.726L132.256 41.2347C132.554 41.3368 132.835 41.5046 133.1 41.7383C133.37 41.9689 133.599 42.244 133.79 42.5638ZM129.969 44.5732C130.153 44.8826 130.38 45.1069 130.651 45.2459C130.928 45.3818 131.232 45.4242 131.565 45.3731L132.23 44.9776L131.471 43.7011C131.057 43.0048 130.608 42.8008 130.123 43.089C129.886 43.23 129.751 43.4322 129.719 43.6955C129.693 43.9557 129.776 44.2483 129.969 44.5732Z" fill="black"/>
<path d="M135.983 56.9285L134.402 57.5567L134.179 56.9964L135.242 56.5742L133.676 52.6349L132.614 53.057L132.391 52.4967L133.972 51.8685L134.072 52.1194C134.206 52.4082 134.503 52.5226 134.963 52.4623C135.424 52.4021 136.038 52.2419 136.806 51.9818L138.301 51.4553L139.591 54.7005L135.71 56.2427L135.983 56.9285ZM136.989 52.5387C136.353 52.759 135.816 52.911 135.378 52.9947C134.946 53.0762 134.614 53.0465 134.384 52.9056L135.474 55.6489L138.828 54.316L137.987 52.2L136.989 52.5387Z" fill="black"/>
<path d="M19.4053 101.287L13.519 103.532L13.2848 102.919L16.0009 101.883L14.596 98.1993L11.8799 99.2354L11.6426 98.6131L17.5289 96.3678L17.7663 96.9901L15.1426 97.9909L16.5475 101.674L19.1711 100.673L19.4053 101.287Z" fill="black"/>
<path d="M22.933 107.826L17.3754 110.793L17.066 110.213L19.6304 108.844L17.7739 105.367L15.2095 106.736L14.8958 106.148L20.4534 103.181L20.7671 103.769L18.29 105.091L20.1465 108.568L22.6236 107.246L22.933 107.826Z" fill="black"/>
<path d="M26.039 113.201L24.1251 110.443L19.4276 113.713L19.053 113.174L24.2289 109.582L26.5122 112.872L26.039 113.201Z" fill="black"/>
<path d="M31.2636 118.308L25.3886 119.64C24.9697 119.735 24.5994 119.74 24.2778 119.654C23.9646 119.57 23.7014 119.405 23.4882 119.161C23.3303 118.98 23.2035 118.749 23.1077 118.466L23.6387 118.253C23.7176 118.471 23.8162 118.647 23.9347 118.783C24.2071 119.095 24.5995 119.202 25.1121 119.105L25.461 119.039L27.4324 113.922L27.9002 114.458L26.1325 118.918L30.8254 117.806L31.2636 118.308Z" fill="black"/>
<path d="M35.086 123.679L35.5913 124.071L33.2879 127.045L38.0889 126.005L38.5372 126.352L35.6388 130.095L35.1336 129.704L37.4369 126.729L32.643 127.775L32.1876 127.422L35.086 123.679Z" fill="black"/>
<path d="M45.3461 130.476L42.9211 134.542L42.4187 134.242L44.3365 131.027L41.0674 132.766L40.82 132.618L40.801 128.908L38.8786 132.131L38.3761 131.831L40.8011 127.766L41.3576 128.098L41.3341 132.055L44.8359 130.172L45.3461 130.476Z" fill="black"/>
<path d="M45.5008 135.736C45.3814 135.679 45.2988 135.587 45.253 135.459C45.2125 135.334 45.2218 135.209 45.2807 135.084C45.3396 134.96 45.4289 134.876 45.5487 134.833C45.6765 134.787 45.8001 134.792 45.9195 134.848C46.0388 134.905 46.1214 134.997 46.1673 135.125C46.2157 135.247 46.2105 135.371 46.1516 135.495C46.0927 135.62 45.9994 135.705 45.8716 135.751C45.7438 135.797 45.6202 135.792 45.5008 135.736Z" fill="black"/>
<path d="M56.8887 133.363L54.764 139.294L54.1455 139.072L55.1259 136.335L51.4148 135.006L50.4345 137.743L49.8075 137.518L51.9321 131.587L52.5591 131.812L51.6121 134.455L55.3232 135.785L56.2702 133.141L56.8887 133.363Z" fill="black"/>
<path d="M57.4067 139.926C57.2787 139.893 57.1799 139.819 57.1103 139.702C57.0465 139.587 57.0315 139.463 57.0652 139.329C57.099 139.195 57.1705 139.096 57.2798 139.03C57.3963 138.961 57.5186 138.942 57.6466 138.974C57.7746 139.007 57.8734 139.081 57.943 139.198C58.0141 139.308 58.0327 139.431 57.999 139.564C57.9652 139.698 57.89 139.8 57.7735 139.87C57.6569 139.939 57.5346 139.958 57.4067 139.926Z" fill="black"/>
<path d="M62.9186 134.616L63.5682 134.714L62.7872 139.876L67.5548 135.318L68.1511 135.408L67.2084 141.637L66.5588 141.539L67.3385 136.386L62.5722 140.935L61.976 140.845L62.9186 134.616Z" fill="black"/>
<path d="M69.8965 141.744C69.7647 141.737 69.6534 141.683 69.5627 141.582C69.4779 141.481 69.4392 141.362 69.4466 141.224C69.4539 141.087 69.5049 140.975 69.5996 140.89C69.7006 140.799 69.817 140.758 69.9488 140.765C70.0806 140.772 70.1919 140.826 70.2826 140.927C70.3737 141.022 70.4156 141.138 70.4082 141.276C70.4009 141.414 70.3467 141.528 70.2457 141.619C70.1447 141.709 70.0283 141.751 69.8965 141.744Z" fill="black"/>
<path d="M79.2191 135.257L79.4937 141.551L78.8374 141.58L78.5878 135.861L75.5487 135.994L75.5686 138.101C75.5766 138.972 75.5352 139.676 75.4446 140.214C75.3597 140.747 75.2091 141.15 74.9929 141.423C74.7763 141.691 74.4792 141.833 74.1016 141.85C73.9398 141.857 73.771 141.843 73.5953 141.809L73.6234 141.213C73.7263 141.232 73.8258 141.24 73.9217 141.236C74.1854 141.224 74.3937 141.11 74.5463 140.893C74.705 140.676 74.8168 140.347 74.8816 139.906C74.9462 139.458 74.9776 138.872 74.9759 138.145L74.9482 135.444L79.2191 135.257Z" fill="black"/>
<path d="M84.4737 140.811C84.0235 140.883 83.6015 140.848 83.2077 140.705C82.8129 140.556 82.4828 140.317 82.2172 139.989C81.9516 139.662 81.782 139.27 81.7085 138.813C81.6349 138.357 81.6727 137.932 81.8217 137.537C81.9708 137.142 82.2097 136.815 82.5386 136.555C82.8674 136.296 83.257 136.13 83.7071 136.057C84.1573 135.984 84.5793 136.02 84.9731 136.163C85.3669 136.306 85.6937 136.542 85.9533 136.871C86.2189 137.199 86.3885 137.591 86.4621 138.047C86.5356 138.503 86.4979 138.928 86.3488 139.323C86.2057 139.717 85.9702 140.047 85.6423 140.312C85.3134 140.572 84.9239 140.738 84.4737 140.811ZM84.3834 140.251C84.7151 140.197 84.9994 140.076 85.2361 139.885C85.4779 139.688 85.6503 139.439 85.7535 139.137C85.8567 138.834 85.8796 138.505 85.8223 138.15C85.765 137.795 85.6399 137.49 85.4469 137.235C85.2539 136.981 85.0122 136.801 84.7217 136.696C84.4363 136.584 84.1277 136.554 83.796 136.608C83.4643 136.661 83.1775 136.787 82.9358 136.984C82.6991 137.174 82.5261 137.42 82.417 137.724C82.3138 138.026 82.2909 138.355 82.3482 138.71C82.4055 139.066 82.5307 139.371 82.7236 139.625C82.9225 139.879 83.1647 140.062 83.4502 140.173C83.7406 140.279 84.0517 140.304 84.3834 140.251Z" fill="black"/>
<path d="M90.3433 134.639C90.7658 134.523 91.1681 134.516 91.5502 134.617C91.9365 134.711 92.2688 134.903 92.5473 135.194C92.8241 135.479 93.0218 135.839 93.1403 136.273C93.262 136.718 93.2718 137.142 93.1698 137.543C93.072 137.936 92.8755 138.276 92.5804 138.562C92.2852 138.848 91.9119 139.052 91.4604 139.176C90.7022 139.383 90.042 139.277 89.4799 138.858C88.9178 138.439 88.5087 137.761 88.2528 136.823C87.9858 135.845 87.9664 135.045 88.1946 134.423C88.4287 133.799 88.9169 133.287 89.6593 132.885L91.5804 131.857L91.8386 132.393L90.032 133.362C89.4174 133.685 89.0073 134.074 88.8017 134.528C88.5944 134.976 88.5743 135.563 88.7413 136.289C88.8301 135.885 89.0126 135.54 89.2889 135.253C89.5635 134.96 89.915 134.756 90.3433 134.639ZM91.338 138.659C91.6563 138.572 91.9202 138.422 92.1296 138.209C92.3432 137.989 92.4831 137.727 92.5494 137.423C92.6214 137.117 92.6116 136.797 92.5199 136.461C92.4283 136.125 92.2783 135.849 92.0698 135.632C91.8614 135.415 91.6109 135.272 91.3183 135.203C91.0299 135.126 90.7236 135.132 90.3995 135.22C90.0753 135.309 89.8057 135.46 89.5905 135.674C89.3795 135.881 89.2364 136.132 89.1612 136.426C89.0918 136.719 89.103 137.033 89.1946 137.368C89.2862 137.704 89.4379 137.986 89.6495 138.215C89.8668 138.441 90.1234 138.595 90.4192 138.676C90.7134 138.751 91.0196 138.746 91.338 138.659Z" fill="black"/>
<path d="M95.7447 132.565C96.3202 132.34 96.8185 132.312 97.2395 132.483C97.6583 132.647 97.9781 133.012 98.199 133.576L99.2684 136.308L98.6985 136.531L98.4295 135.844C98.385 136.126 98.2567 136.382 98.0444 136.613C97.8377 136.842 97.5555 137.027 97.1979 137.167C96.7062 137.359 96.2692 137.395 95.8868 137.274C95.5044 137.153 95.2378 136.9 95.0869 136.514C94.9404 136.14 94.9564 135.786 95.1349 135.452C95.319 135.116 95.7072 134.832 96.2995 134.6L97.6991 134.052L97.5941 133.784C97.4454 133.404 97.2266 133.158 96.9378 133.045C96.6467 132.927 96.2973 132.948 95.8894 133.108C95.6101 133.217 95.3605 133.369 95.1406 133.565C94.9186 133.755 94.7471 133.967 94.6261 134.201L94.1841 133.862C94.3332 133.585 94.5446 133.334 94.8181 133.111C95.0894 132.883 95.3983 132.701 95.7447 132.565ZM97.1064 136.661C97.4416 136.53 97.6999 136.342 97.8811 136.097C98.0601 135.847 98.1514 135.553 98.155 135.217L97.8729 134.496L96.4901 135.037C95.7358 135.333 95.4614 135.743 95.667 136.268C95.7676 136.525 95.9452 136.691 96.1998 136.765C96.4522 136.834 96.7544 136.799 97.1064 136.661Z" fill="black"/>
<path d="M103.312 128.963L105.497 133.163L104.93 133.458L104.02 131.709C103.647 132.174 103.226 132.528 102.757 132.772C102.251 133.035 101.798 133.125 101.397 133.043C100.993 132.956 100.67 132.681 100.43 132.217L99.7111 130.836L100.278 130.541L100.98 131.891C101.143 132.205 101.369 132.392 101.657 132.451C101.942 132.506 102.263 132.44 102.62 132.255C103.014 132.05 103.402 131.716 103.783 131.254L102.745 129.258L103.312 128.963Z" fill="black"/>
<path d="M110.603 127.265L107.305 129.455C107.607 129.845 107.985 130.073 108.439 130.139C108.89 130.2 109.333 130.086 109.768 129.797C110.013 129.634 110.209 129.442 110.358 129.221C110.503 128.995 110.594 128.747 110.631 128.478L111.16 128.624C111.125 128.95 111.011 129.256 110.819 129.542C110.632 129.824 110.381 130.07 110.066 130.279C109.662 130.548 109.245 130.702 108.818 130.741C108.391 130.772 107.99 130.693 107.612 130.504C107.235 130.316 106.918 130.029 106.663 129.644C106.407 129.259 106.261 128.86 106.223 128.445C106.191 128.027 106.263 127.637 106.44 127.275C106.622 126.909 106.895 126.605 107.26 126.363C107.625 126.12 108.009 125.988 108.412 125.965C108.814 125.943 109.199 126.029 109.567 126.224C109.931 126.415 110.242 126.705 110.501 127.095L110.603 127.265ZM107.564 126.82C107.184 127.072 106.945 127.407 106.848 127.825C106.753 128.234 106.817 128.645 107.041 129.058L109.837 127.201C109.543 126.834 109.187 126.617 108.767 126.55C108.35 126.474 107.949 126.564 107.564 126.82Z" fill="black"/>
<path d="M114.737 123.481C115.327 123.186 115.821 123.279 116.22 123.759C116.484 124.078 116.57 124.42 116.476 124.787C116.382 125.153 116.103 125.529 115.636 125.917L113.981 127.29L110.957 123.648L112.564 122.314C112.98 121.969 113.372 121.78 113.742 121.746C114.111 121.712 114.421 121.845 114.67 122.145C114.835 122.344 114.921 122.561 114.929 122.796C114.938 123.022 114.874 123.251 114.737 123.481ZM112.78 124.872L113.875 123.963C114.156 123.73 114.327 123.498 114.386 123.27C114.451 123.037 114.398 122.819 114.23 122.616C114.061 122.413 113.859 122.324 113.622 122.348C113.39 122.37 113.133 122.497 112.851 122.731L111.757 123.639L112.78 124.872ZM115.294 125.546C115.607 125.285 115.801 125.039 115.873 124.807C115.946 124.575 115.892 124.351 115.712 124.134C115.532 123.917 115.328 123.817 115.101 123.834C114.87 123.847 114.599 123.982 114.29 124.238L113.085 125.239L114.137 126.506L115.294 125.546Z" fill="black"/>
<path d="M120.555 121.255C120.229 121.591 119.863 121.821 119.457 121.945C119.056 122.065 118.651 122.073 118.242 121.969C117.829 121.86 117.457 121.644 117.126 121.322C116.794 121 116.571 120.636 116.455 120.231C116.339 119.825 116.335 119.42 116.444 119.015C116.557 118.606 116.777 118.234 117.103 117.899C117.388 117.606 117.699 117.402 118.036 117.287C118.374 117.164 118.718 117.142 119.067 117.222L118.966 117.79C118.69 117.738 118.427 117.759 118.178 117.852C117.925 117.94 117.7 118.085 117.503 118.288C117.265 118.533 117.105 118.809 117.025 119.115C116.944 119.413 116.95 119.717 117.044 120.025C117.141 120.329 117.319 120.607 117.577 120.858C117.84 121.113 118.124 121.285 118.431 121.374C118.738 121.455 119.041 121.453 119.341 121.368C119.641 121.274 119.91 121.105 120.149 120.86C120.345 120.658 120.486 120.431 120.572 120.179C120.658 119.928 120.671 119.665 120.612 119.39L121.177 119.273C121.266 119.62 121.256 119.966 121.147 120.311C121.033 120.652 120.835 120.967 120.555 121.255Z" fill="black"/>
<path d="M123.183 114.822L122.517 115.672L124.175 116.971L123.78 117.474L120.055 114.553L120.449 114.05L122.085 115.333L122.757 114.476L122.148 111.883L122.575 111.337L123.232 114.219L126.384 114.152L125.918 114.747L123.183 114.822Z" fill="black"/>
<path d="M128.914 110.207C128.673 110.594 128.369 110.889 128.002 111.091C127.63 111.29 127.233 111.382 126.811 111.366C126.39 111.35 125.983 111.22 125.591 110.976C125.199 110.731 124.904 110.422 124.704 110.05C124.505 109.678 124.416 109.283 124.437 108.865C124.458 108.446 124.589 108.044 124.83 107.657C125.072 107.27 125.376 106.975 125.743 106.773C126.11 106.571 126.503 106.48 126.921 106.501C127.343 106.516 127.749 106.647 128.141 106.891C128.533 107.136 128.829 107.444 129.028 107.816C129.23 108.183 129.324 108.578 129.308 108.999C129.287 109.418 129.156 109.82 128.914 110.207ZM128.434 109.907C128.612 109.622 128.707 109.328 128.719 109.024C128.73 108.713 128.656 108.419 128.496 108.142C128.336 107.865 128.104 107.632 127.798 107.441C127.493 107.25 127.181 107.144 126.862 107.122C126.544 107.1 126.249 107.163 125.979 107.313C125.707 107.454 125.482 107.667 125.304 107.952C125.126 108.237 125.031 108.536 125.021 108.847C125.008 109.151 125.08 109.443 125.237 109.725C125.396 110.002 125.629 110.235 125.934 110.426C126.24 110.617 126.552 110.723 126.87 110.745C127.192 110.762 127.489 110.7 127.761 110.559C128.031 110.409 128.256 110.192 128.434 109.907Z" fill="black"/>
<path d="M129.004 100.982L127.81 103.414L131.55 105.25L131.268 105.824L127.019 103.737L128.495 100.732L129.004 100.982Z" fill="black"/>
<path d="M134.555 98.2152C134.396 98.6428 134.158 98.9928 133.84 99.2651C133.516 99.5354 133.145 99.7055 132.729 99.7753C132.313 99.8451 131.888 99.7998 131.455 99.6393C131.022 99.4788 130.67 99.2366 130.4 98.9125C130.13 98.5885 129.962 98.2194 129.898 97.8054C129.834 97.3913 129.881 96.9704 130.04 96.5428C130.198 96.1152 130.436 95.7652 130.755 95.4929C131.073 95.2205 131.439 95.0522 131.853 94.9881C132.27 94.9183 132.694 94.9636 133.128 95.124C133.561 95.2845 133.913 95.5268 134.183 95.8508C134.455 96.1692 134.626 96.5365 134.696 96.9527C134.76 97.3667 134.713 97.7876 134.555 98.2152ZM134.023 98.0182C134.14 97.7032 134.174 97.3958 134.125 97.0961C134.072 96.7888 133.94 96.5158 133.727 96.2772C133.515 96.0386 133.24 95.8567 132.902 95.7317C132.565 95.6067 132.238 95.5655 131.921 95.6082C131.605 95.6509 131.329 95.7728 131.095 95.9739C130.857 96.1673 130.679 96.4216 130.563 96.7366C130.446 97.0517 130.414 97.363 130.467 97.6703C130.515 97.97 130.645 98.2419 130.855 98.4862C131.068 98.7248 131.343 98.9066 131.68 99.0316C132.018 99.1567 132.345 99.1978 132.661 99.1551C132.98 99.1068 133.258 98.9859 133.496 98.7925C133.731 98.5914 133.906 98.3333 134.023 98.0182Z" fill="black"/>
<defs>
<clipPath id="clip0">
<rect width="62.2933" height="61.5802" fill="white" transform="translate(41.8533 37.96)"/>
</clipPath>
</defs>
</svg>
