<svg width="112" height="116" viewBox="0 0 112 116" fill="none" xmlns="http://www.w3.org/2000/svg">
<path d="M99.869 58.0717C99.869 82.4676 80.0923 102.244 55.6963 102.244C31.3004 102.244 11.5236 82.4676 11.5236 58.0717C11.5236 33.6758 31.3004 13.899 55.6963 13.899C80.0923 13.899 99.869 33.6758 99.869 58.0717Z" fill="#E2ABCC"/>
<path d="M6.05017 34.3394C6.30848 33.6587 6.64492 33.1104 7.05949 32.6945C7.47689 32.271 7.94611 32.0041 8.46715 31.8938C8.98819 31.7835 9.53667 31.8377 10.1126 32.0562C10.681 32.272 11.1273 32.5954 11.4515 33.0264C11.7681 33.4546 11.9421 33.9656 11.9735 34.5594C12.0077 35.1457 11.8957 35.7791 11.6374 36.4598L10.9646 38.2324L13.2309 39.0925L12.6774 40.551L4.82393 37.5705L6.05017 34.3394ZM10.3777 36.0587C10.619 35.423 10.6674 34.8894 10.5231 34.4581C10.3787 34.0269 10.0559 33.7161 9.55482 33.5259C9.05369 33.3358 8.60605 33.3541 8.21189 33.581C7.81774 33.808 7.50002 34.2393 7.25874 34.875L6.61156 36.5804L9.7305 37.764L10.3777 36.0587Z" fill="white"/>
<path d="M19.41 26.1736L20.5136 26.8757L17.1316 32.191L10.0446 27.6818L13.3363 22.5082L14.4399 23.2104L11.9856 27.0678L13.8282 28.2402L16.0055 24.8181L17.0889 25.5074L14.9115 28.9294L16.8655 30.1727L19.41 26.1736Z" fill="white"/>
<path d="M25.4436 17.4202L24.4478 18.4604L27.0049 20.9084L25.951 22.0092L23.3939 19.5612L22.3981 20.6014L23.4864 24.5837L22.2417 25.8839L20.9034 20.9481L16.2984 19.9451L17.4436 18.7489L21.4024 19.698L22.423 18.6318L19.8833 16.2004L20.9371 15.0996L23.4769 17.531L24.481 16.4821L23.3685 12.5598L24.5137 11.3636L25.7334 15.9201L30.7059 17.0424L29.4612 18.3426L25.4436 17.4202Z" fill="white"/>
<path d="M27.5401 11.0094L28.8421 10.1944L32.0066 15.2496L32.6665 7.80032L33.8972 7.02987L38.3544 14.1499L37.0524 14.9649L33.8942 9.91986L33.228 17.359L31.9972 18.1294L27.5401 11.0094Z" fill="white"/>
<path d="M50.1057 11.1367L48.4155 5.83144L47.1733 11.0572L46.5097 11.267L42.5105 7.77423L44.1675 13.0145L42.7602 13.4595L40.2276 5.45038L41.4518 5.06325L46.2963 9.35851L47.7562 3.06972L48.969 2.68621L51.5245 10.6881L50.1057 11.1367Z" fill="white"/>
<path d="M62.8213 3.51751C63.5485 3.55121 64.1742 3.70033 64.6986 3.96489C65.2309 4.22981 65.6305 4.5927 65.8974 5.05355C66.1644 5.51441 66.2836 6.0525 66.2551 6.66784C66.227 7.27519 66.0585 7.79995 65.7497 8.24213C65.4413 8.67632 65.0098 9.00069 64.4552 9.21525C63.9087 9.43019 63.2718 9.5208 62.5446 9.4871L60.6506 9.39933L60.5384 11.8207L58.9801 11.7485L59.369 3.35752L62.8213 3.51751ZM62.5338 8.16518C63.2131 8.19666 63.7352 8.0767 64.1001 7.8053C64.4651 7.53391 64.66 7.1305 64.6848 6.59507C64.7096 6.05965 64.5529 5.63994 64.2146 5.33595C63.8763 5.03197 63.3675 4.86424 62.6882 4.83276L60.8662 4.74832L60.7118 8.08075L62.5338 8.16518Z" fill="white"/>
<path d="M73.9375 12.7685L69.8636 11.7471L68.5877 13.4314L67.0279 13.0404L72.7373 5.81179L74.2271 6.18533L75.8625 15.2553L74.2795 14.8584L73.9375 12.7685ZM73.7346 11.4558L73.0912 7.50881L70.6734 10.6883L73.7346 11.4558Z" fill="white"/>
<path d="M80.4875 9.14833L86.3805 11.9845L85.8237 13.1415L81.3147 10.9714L80.4196 12.8312L82.6579 13.9085C83.5662 14.3456 84.1627 14.8679 84.4473 15.4755C84.7427 16.0793 84.7187 16.7381 84.3752 17.4517C84.0144 18.2014 83.4756 18.6568 82.7588 18.8179C82.0455 18.9718 81.2095 18.818 80.2508 18.3566L76.8447 16.7173L80.4875 9.14833ZM80.6955 17.2389C81.2361 17.4991 81.6973 17.5923 82.0791 17.5186C82.4608 17.4448 82.7471 17.2097 82.9379 16.8132C83.3126 16.0347 82.9485 15.3801 81.8456 14.8492L79.8992 13.9125L78.7491 16.3022L80.6955 17.2389Z" fill="white"/>
<path d="M87.5645 24.1119C86.8816 23.5958 86.3766 22.9836 86.0496 22.2752C85.7274 21.5604 85.6077 20.8232 85.6904 20.0635C85.778 19.2974 86.0678 18.5888 86.5598 17.9378C87.0518 17.2868 87.6519 16.8178 88.3601 16.5308C89.0732 16.2374 89.8151 16.1513 90.5859 16.2725C91.3615 16.3873 92.0907 16.7027 92.7736 17.2188C93.4566 17.7349 93.9591 18.3504 94.2813 19.0651C94.6084 19.7735 94.7305 20.5076 94.6477 21.2673C94.5649 22.027 94.2752 22.7355 93.7784 23.3929C93.2816 24.0503 92.679 24.5225 91.9708 24.8096C91.2625 25.0966 90.5206 25.1827 89.745 25.0679C88.9743 24.9466 88.2474 24.628 87.5645 24.1119ZM88.3893 23.0205C88.8361 23.3581 89.3129 23.5631 89.8199 23.6353C90.3316 23.7012 90.8247 23.6326 91.299 23.4295C91.7782 23.2201 92.1866 22.8919 92.5242 22.4452C92.8618 21.9984 93.0636 21.5191 93.1294 21.0074C93.2001 20.4892 93.1315 19.9962 92.9236 19.5282C92.7206 19.0539 92.3956 18.6479 91.9489 18.3102C91.5021 17.9726 91.0228 17.7709 90.5111 17.705C90.0041 17.6328 89.5111 17.7014 89.0319 17.9108C88.5576 18.1139 88.1516 18.4388 87.8139 18.8856C87.4763 19.3324 87.2722 19.8148 87.2015 20.333C87.1356 20.8447 87.2042 21.3378 87.4073 21.8121C87.6152 22.2801 87.9425 22.6829 88.3893 23.0205Z" fill="white"/>
<path d="M101.933 30.1976L100.19 28.0264L94.6687 32.4579L93.6998 31.2507L99.2214 26.8192L97.4863 24.6573L98.5158 23.8311L102.962 29.3714L101.933 30.1976Z" fill="white"/>
<path d="M103.174 36.3038C103.68 37.1755 103.871 37.9575 103.746 38.6501C103.632 39.3455 103.191 39.9162 102.423 40.3622C101.62 40.8283 100.856 40.93 100.13 40.6672C99.4104 40.4004 98.7815 39.8035 98.2431 38.8765L96.4289 35.7532L103.692 31.5341L104.464 32.8623L102.005 34.2908L103.174 36.3038ZM99.2445 38.2115C99.5499 38.7373 99.906 39.0717 100.313 39.2146C100.72 39.3576 101.155 39.2945 101.618 39.0253C102.497 38.515 102.619 37.7134 101.984 36.6204L100.977 34.8875L98.238 36.4787L99.2445 38.2115ZM107.815 38.6317L108.587 39.9599L101.323 44.1789L100.551 42.8507L107.815 38.6317Z" fill="white"/>
<path d="M105.01 82.0528C104.694 82.7088 104.312 83.2263 103.863 83.6051C103.411 83.9913 102.92 84.2169 102.392 84.2821C101.863 84.3474 101.321 84.2464 100.766 83.9793C100.218 83.7156 99.8016 83.3551 99.5156 82.8979C99.2368 82.4441 99.1072 81.9201 99.1269 81.3258C99.1431 80.7387 99.309 80.1172 99.6247 79.4612L100.447 77.7528L98.2628 76.7016L98.9393 75.2959L106.508 78.9387L105.01 82.0528ZM100.845 79.9688C100.55 80.5815 100.456 81.1089 100.563 81.551C100.67 81.9931 100.965 82.3303 101.448 82.5628C101.931 82.7952 102.379 82.8153 102.791 82.623C103.203 82.4308 103.556 82.0282 103.851 81.4155L104.642 79.772L101.636 78.3252L100.845 79.9688Z" fill="white"/>
<path d="M91.8993 89.3399L90.8558 88.5513L94.6541 83.5251L101.356 88.5895L97.6587 93.4817L96.6151 92.6931L99.3716 89.0455L97.6292 87.7287L95.1838 90.9647L94.1594 90.1905L96.6048 86.9546L94.7571 85.5583L91.8993 89.3399Z" fill="white"/>
<path d="M85.455 98.3267L86.558 97.4011L84.2825 94.6893L85.4499 93.7097L87.7255 96.4214L88.8286 95.4958L88.1801 91.4187L89.5589 90.2617L90.3521 95.3139L94.8206 96.812L93.5521 97.8765L89.7201 96.5022L88.5894 97.451L90.8495 100.144L89.6821 101.124L87.422 98.4306L86.3097 99.364L86.9887 103.384L85.7202 104.449L85.0036 99.7863L80.1827 98.1296L81.5616 96.9725L85.455 98.3267Z" fill="white"/>
<path d="M83.2844 105.649L81.9004 106.315L79.314 100.941L77.8347 108.272L76.5264 108.902L72.8836 101.333L74.2676 100.667L76.8488 106.03L78.3333 98.7098L79.6416 98.0801L83.2844 105.649Z" fill="white"/>
<path d="M61.4344 104.272L62.5312 109.731L64.3404 104.674L65.023 104.538L68.614 108.449L67.543 103.059L68.9907 102.771L70.6276 111.01L69.3682 111.26L65.0253 106.458L62.8829 112.549L61.6353 112.796L59.9749 104.562L61.4344 104.272Z" fill="white"/>
<path d="M48.2373 112.393C47.5155 112.297 46.9046 112.096 46.4046 111.788C45.8966 111.479 45.5291 111.084 45.3021 110.602C45.0751 110.12 45.0018 109.574 45.0822 108.963C45.1617 108.36 45.3739 107.852 45.719 107.437C46.0631 107.031 46.5204 106.744 47.0911 106.577C47.6539 106.409 48.2962 106.373 49.0179 106.468L50.8977 106.715L51.2143 104.312L52.7609 104.516L51.6637 112.844L48.2373 112.393ZM48.9169 107.786C48.2427 107.697 47.7123 107.772 47.3257 108.012C46.9391 108.251 46.7108 108.637 46.6408 109.168C46.5708 109.7 46.6914 110.131 47.0028 110.463C47.3142 110.794 47.8069 111.004 48.4811 111.093L50.2895 111.331L50.7252 108.024L48.9169 107.786Z" fill="white"/>
<path d="M37.6894 103.037L41.6591 104.409L43.0766 102.842L44.5964 103.367L38.2806 110.072L36.8288 109.57L35.9877 100.393L37.5303 100.926L37.6894 103.037ZM37.7774 104.363L38.0755 108.351L40.7604 105.393L37.7774 104.363Z" fill="white"/>
<path d="M30.6177 106.941L24.9869 103.615L25.6399 102.509L29.9483 105.054L30.9981 103.277L28.8594 102.014C27.9916 101.501 27.4416 100.93 27.2095 100.301C26.9665 99.6739 27.0464 99.0196 27.4492 98.3377C27.8724 97.6213 28.4479 97.2133 29.1758 97.1137C29.8996 97.0209 30.7195 97.2451 31.6356 97.7863L34.8902 99.7089L30.6177 106.941ZM31.0976 98.8622C30.581 98.557 30.1294 98.425 29.7428 98.466C29.3561 98.5071 29.0509 98.7171 28.8271 99.0959C28.3877 99.8398 28.6949 100.523 29.7487 101.146L31.6085 102.244L32.9573 99.9608L31.0976 98.8622Z" fill="white"/>
<path d="M24.2191 92.0347C24.8418 92.6221 25.277 93.2858 25.5249 94.0256C25.7673 94.7712 25.8059 95.5171 25.6409 96.2633C25.4703 97.0152 25.1051 97.688 24.5451 98.2815C23.9851 98.875 23.3374 99.2759 22.6021 99.484C21.8613 99.698 21.1145 99.7027 20.3615 99.4982C19.603 99.2996 18.9125 98.9065 18.2899 98.3191C17.6673 97.7317 17.2347 97.0651 16.9924 96.3195C16.7445 95.5797 16.7031 94.8367 16.8681 94.0905C17.0332 93.3444 17.3985 92.6716 17.9639 92.0723C18.5294 91.4729 19.1798 91.0692 19.9151 90.8611C20.6504 90.6529 21.3973 90.6482 22.1558 90.8468C22.9087 91.0513 23.5965 91.4473 24.2191 92.0347ZM23.2803 93.0297C22.873 92.6454 22.4213 92.3897 21.9253 92.2627C21.4237 92.1415 20.9261 92.1559 20.4325 92.3061C19.9334 92.4621 19.4916 92.7437 19.1073 93.1511C18.723 93.5584 18.4703 94.0128 18.349 94.5144C18.2223 95.0217 18.2368 95.5193 18.3924 96.0071C18.5426 96.5008 18.8214 96.9398 19.2287 97.3241C19.636 97.7084 20.0904 97.9611 20.592 98.0824C21.088 98.2094 21.5856 98.195 22.0847 98.039C22.5784 97.8888 23.0174 97.61 23.4017 97.2027C23.786 96.7954 24.0415 96.3381 24.1682 95.8307C24.2895 95.3292 24.275 94.8316 24.1248 94.3379C23.9691 93.8501 23.6877 93.414 23.2803 93.0297Z" fill="white"/>
<path d="M9.65969 85.6369L11.2643 87.9119L17.05 83.8312L17.9422 85.0963L12.1565 89.1769L13.7542 91.4422L12.6755 92.203L8.581 86.3977L9.65969 85.6369Z" fill="white"/>
<path d="M8.28825 79.4211C7.88177 78.4987 7.7791 77.7003 7.98023 77.0259C8.17082 76.3475 8.67242 75.8292 9.48501 75.4711C10.3342 75.0969 11.1051 75.0806 11.7977 75.4223C12.483 75.7673 13.0418 76.4302 13.4741 77.4112L14.9307 80.7165L7.24391 84.1039L6.62451 82.6983L9.22702 81.5514L8.28825 79.4211ZM12.405 77.961C12.1598 77.4046 11.843 77.0328 11.4545 76.8456C11.066 76.6584 10.6265 76.6728 10.1361 76.889C9.20632 77.2987 8.99632 78.0819 9.50603 79.2385L10.3141 81.0724L13.2131 79.7949L12.405 77.961ZM3.934 76.5928L3.3146 75.1872L11.0013 71.7999L11.6207 73.2055L3.934 76.5928Z" fill="white"/>
<g clip-path="url(#clip0)">
<path d="M50.5554 74.9763L50.2384 74.8772C49.712 74.7071 49.2868 74.336 49.0401 73.8363C48.4877 72.7153 48.8518 71.4566 50.9546 65.5326C51.15 64.9823 51.3728 64.3547 51.5942 63.7193C51.0424 64.1382 50.4992 64.555 50.0227 64.9218C45.4024 68.4689 44.2076 69.299 43.0718 69.2997C43.0711 69.2997 43.0704 69.2997 43.0704 69.2997C42.3985 69.2997 41.7927 68.9947 41.4055 68.4647C41.0815 68.0184 40.9543 67.471 41.0484 66.9221C41.2586 65.6971 42.1989 64.964 47.3892 61.3972C47.8974 61.0479 48.4772 60.6494 49.0605 60.2425C48.4568 60.2573 47.8327 60.2727 47.2191 60.2889C45.765 60.3276 44.261 60.3676 43.0072 60.3676C41.9459 60.3676 41.1855 60.3395 40.6141 60.2805C38.363 60.0464 38.027 58.7968 38.027 58.0722C38.027 55.7768 40.56 55.7768 43.0086 55.7768C44.2617 55.7768 45.765 55.8169 47.2184 55.8556C47.8334 55.8717 48.4568 55.8886 49.0619 55.9019C48.4779 55.4957 47.8974 55.0965 47.3892 54.7472C42.1996 51.1804 41.2593 50.4481 41.0491 49.2224C40.955 48.6728 41.0815 48.1246 41.4062 47.6797C41.792 47.1491 42.3992 46.8448 43.0711 46.8448C44.2069 46.8448 45.4017 47.6741 50.0206 51.2205C50.4978 51.5874 51.0424 52.0048 51.5949 52.4244C51.3728 51.7877 51.15 51.1608 50.9539 50.609C48.8518 44.6864 48.4877 43.4277 49.0401 42.3074C49.2868 41.8063 49.712 41.4366 50.2363 41.2658L50.5273 41.1717L50.859 41.1674C52.7355 41.1674 53.1382 42.5288 55.0717 49.0671C55.2593 49.7017 55.4751 50.4326 55.6965 51.1636C55.9179 50.4319 56.1343 49.701 56.322 49.0664C58.2554 42.5281 58.6567 41.1674 60.5332 41.1674H60.839L61.1545 41.2651C61.6802 41.4366 62.1061 41.8063 62.3528 42.3074C62.9038 43.4284 62.5419 44.6864 60.4384 50.6105C60.243 51.1615 60.0195 51.7877 59.7974 52.4237C60.3491 52.0055 60.8917 51.5895 61.3661 51.224C65.9885 47.6748 67.184 46.8455 68.3211 46.8455C68.9923 46.8455 69.5988 47.1498 69.9861 47.6804C70.3101 48.126 70.4373 48.6742 70.3431 49.2231C70.133 50.4481 69.1926 51.1811 64.003 54.7479C63.4942 55.0972 62.9144 55.4957 62.331 55.9012C62.9355 55.8879 63.5589 55.8717 64.1731 55.8548C65.6265 55.8162 67.1298 55.7761 68.383 55.7761C70.8316 55.7761 73.3645 55.7761 73.3645 58.0722C73.3645 60.3676 70.8316 60.3676 68.3823 60.3676C67.1284 60.3676 65.6237 60.3276 64.1703 60.2889C63.5567 60.2734 62.9333 60.2559 62.3303 60.2432C62.9144 60.6494 63.4949 61.0486 64.0037 61.3986C69.1933 64.9654 70.1337 65.6978 70.3438 66.9228C70.438 67.4717 70.3108 68.0206 69.9868 68.464C69.5995 68.9968 68.993 69.2997 68.3218 69.2997C67.1868 69.2997 65.9913 68.4704 61.3703 64.9218C60.8931 64.5557 60.3505 64.1382 59.7988 63.7193C60.0202 64.3554 60.2437 64.9837 60.4384 65.534C62.5412 71.4573 62.9052 72.716 62.3535 73.8356C62.1061 74.3374 61.6816 74.7057 61.1566 74.8772L60.8664 74.9707L60.5353 74.9756C60.5346 74.9756 60.5346 74.9756 60.5332 74.9756C58.6567 74.9756 58.2554 73.6142 56.322 67.076C56.1343 66.4413 55.9186 65.7111 55.6972 64.9809C55.4758 65.7125 55.2593 66.4427 55.0717 67.0781C53.1389 73.6135 52.7369 74.9721 50.8632 74.9756L50.5554 74.9763Z" fill="white"/>
</g>
<defs>
<clipPath id="clip0">
<rect width="35.3382" height="35.3382" fill="white" transform="translate(38.027 40.4028)"/>
</clipPath>
</defs>
</svg>
