<svg width="25" height="25" viewBox="0 0 25 25" fill="none" xmlns="http://www.w3.org/2000/svg">
<circle cx="12.5" cy="12.5" r="12" stroke="#453A3A"/>
<path fill-rule="evenodd" clip-rule="evenodd" d="M18.3516 14.2193C18.3516 14.2193 19.5643 15.417 19.8643 15.9713C19.8702 15.9793 19.8747 15.9881 19.8778 15.9975C20.0001 16.2023 20.0301 16.3628 19.9701 16.4813C19.8688 16.677 19.5261 16.7753 19.4098 16.7835H17.2663C17.1171 16.7835 16.8066 16.7445 16.4286 16.4835C16.1398 16.2818 15.8526 15.9495 15.5743 15.6248C15.1588 15.1425 14.7996 14.724 14.4358 14.724C14.3899 14.7239 14.3442 14.7315 14.3008 14.7465C14.0256 14.8335 13.6761 15.2258 13.6761 16.2705C13.6761 16.5975 13.4181 16.7835 13.2373 16.7835H12.2556C11.9211 16.7835 10.1796 16.6665 8.63532 15.0383C6.74307 13.0448 5.04357 9.04576 5.02707 9.01051C4.92132 8.75176 5.14332 8.61076 5.38332 8.61076H7.54782C7.83807 8.61076 7.93257 8.78626 7.99857 8.94376C8.07507 9.12451 8.35857 9.84751 8.82357 10.6598C9.57657 11.9813 10.0393 12.519 10.4091 12.519C10.4785 12.5192 10.5468 12.5011 10.6071 12.4665C11.0901 12.201 11.0001 10.476 10.9776 10.1205C10.9776 10.0515 10.9768 9.35026 10.7293 9.01126C10.5523 8.76826 10.2508 8.67376 10.0686 8.63926C10.1173 8.56876 10.2208 8.46076 10.3536 8.39701C10.6843 8.23201 11.2821 8.20801 11.8753 8.20801H12.2046C12.8481 8.21701 13.0146 8.25826 13.2486 8.31751C13.7196 8.43001 13.7286 8.73526 13.6873 9.77476C13.6753 10.0718 13.6626 10.4063 13.6626 10.8C13.6626 10.884 13.6588 10.9778 13.6588 11.073C13.6446 11.6063 13.6258 12.207 14.0023 12.4538C14.0511 12.4842 14.1075 12.5003 14.1651 12.5003C14.2956 12.5003 14.6863 12.5003 15.7461 10.6815C16.2111 9.87826 16.5711 8.93101 16.5958 8.85976C16.6168 8.82001 16.6798 8.70826 16.7563 8.66326C16.8107 8.6343 16.8717 8.61984 16.9333 8.62126H19.4796C19.7571 8.62126 19.9453 8.66326 19.9821 8.76826C20.0436 8.93851 19.9701 9.45826 18.8076 11.0303C18.6118 11.292 18.4401 11.5185 18.2893 11.7165C17.2356 13.0995 17.2356 13.1693 18.3516 14.2193Z" fill="#453A3A"/>
</svg>
