<svg width="25" height="25" viewBox="0 0 25 25" fill="none" xmlns="http://www.w3.org/2000/svg">
<circle cx="12.5" cy="12.5" r="12" fill="#C8E982" stroke="#151719"/>
<rect width="15" height="15" transform="translate(5 4.99982)" fill="#C8E982"/>
<path fill-rule="evenodd" clip-rule="evenodd" d="M18.3516 14.2191C18.3516 14.2191 19.5643 15.4169 19.8643 15.9711C19.8702 15.9791 19.8747 15.988 19.8778 15.9974C20.0001 16.2021 20.0301 16.3626 19.9701 16.4811C19.8688 16.6769 19.5261 16.7751 19.4098 16.7834H17.2663C17.1171 16.7834 16.8066 16.7444 16.4286 16.4834C16.1398 16.2816 15.8526 15.9494 15.5743 15.6246C15.1588 15.1424 14.7996 14.7239 14.4358 14.7239C14.3899 14.7238 14.3442 14.7314 14.3008 14.7464C14.0256 14.8334 13.6761 15.2256 13.6761 16.2704C13.6761 16.5974 13.4181 16.7834 13.2373 16.7834H12.2556C11.9211 16.7834 10.1796 16.6664 8.63532 15.0381C6.74307 13.0446 5.04357 9.04564 5.02707 9.01039C4.92132 8.75164 5.14332 8.61064 5.38332 8.61064H7.54782C7.83807 8.61064 7.93257 8.78614 7.99857 8.94364C8.07507 9.12439 8.35857 9.84739 8.82357 10.6596C9.57657 11.9811 10.0393 12.5189 10.4091 12.5189C10.4785 12.5191 10.5468 12.501 10.6071 12.4664C11.0901 12.2009 11.0001 10.4759 10.9776 10.1204C10.9776 10.0514 10.9768 9.35014 10.7293 9.01114C10.5523 8.76814 10.2508 8.67364 10.0686 8.63914C10.1173 8.56864 10.2208 8.46064 10.3536 8.39689C10.6843 8.23189 11.2821 8.20789 11.8753 8.20789H12.2046C12.8481 8.21689 13.0146 8.25814 13.2486 8.31739C13.7196 8.42989 13.7286 8.73514 13.6873 9.77464C13.6753 10.0716 13.6626 10.4061 13.6626 10.7999C13.6626 10.8839 13.6588 10.9776 13.6588 11.0729C13.6446 11.6061 13.6258 12.2069 14.0023 12.4536C14.0511 12.4841 14.1075 12.5002 14.1651 12.5001C14.2956 12.5001 14.6863 12.5001 15.7461 10.6814C16.2111 9.87814 16.5711 8.93089 16.5958 8.85964C16.6168 8.81989 16.6798 8.70814 16.7563 8.66314C16.8107 8.63418 16.8717 8.61972 16.9333 8.62114H19.4796C19.7571 8.62114 19.9453 8.66314 19.9821 8.76814C20.0436 8.93839 19.9701 9.45814 18.8076 11.0301C18.6118 11.2919 18.4401 11.5184 18.2893 11.7164C17.2356 13.0994 17.2356 13.1691 18.3516 14.2191Z" fill="#151719"/>
</svg>
