<svg width="15" height="15" fill="none" xmlns="http://www.w3.org/2000/svg"><path fill-rule="evenodd" clip-rule="evenodd" d="M0 7.785c0-1.85.79-3.624 2.197-4.932C3.603 1.545 5.51.81 7.5.81c1.99 0 3.897.735 5.303 2.043C14.21 4.161 15 5.935 15 7.785c0 1.85-.79 3.624-2.197 4.932C11.397 14.025 9.49 14.76 7.5 14.76c-1.99 0-3.897-.735-5.303-2.043C.79 11.41 0 9.635 0 7.785zm7.5-5.974c-1.704 0-3.338.629-4.543 1.75C1.753 4.68 1.076 6.2 1.076 7.784c0 1.585.677 3.104 1.881 4.225 1.205 1.12 2.84 1.75 4.543 1.75 1.704 0 3.338-.63 4.543-1.75 1.204-1.12 1.881-2.64 1.881-4.225 0-1.584-.677-3.104-1.881-4.225-1.205-1.12-2.84-1.75-4.543-1.75zm2.666 3.496a.508.508 0 01.165.372c0 .14-.06.274-.165.373L8.3 7.785l1.865 1.734a.51.51 0 01.166.372.51.51 0 01-.166.373.59.59 0 01-.401.155.59.59 0 01-.401-.155L7.5 8.53l-1.864 1.734a.573.573 0 01-.4.155.604.604 0 01-.402-.155.527.527 0 01-.123-.17.495.495 0 01.123-.575L6.7 7.785 4.834 6.052a.51.51 0 01-.166-.373c0-.14.06-.274.166-.373a.59.59 0 01.401-.154.59.59 0 01.401.154L7.5 7.04l1.864-1.734a.603.603 0 01.802 0v.001z" fill="#C8E982"/></svg>