<svg width="25" height="26" fill="none" xmlns="http://www.w3.org/2000/svg"><circle cx="12.5" cy="12.863" r="12" fill="#C8E982" stroke="#151719"/><path d="M12.293 9.045c-.909 0-1.78.353-2.423.982a3.316 3.316 0 00-1.004 2.37c0 .89.361 1.743 1.004 2.372a3.466 3.466 0 002.423.982c.91 0 1.78-.354 2.424-.982a3.317 3.317 0 001.003-2.371c0-.89-.36-1.742-1.003-2.371a3.466 3.466 0 00-2.424-.982zm0 5.53c-.59 0-1.157-.23-1.574-.638a2.155 2.155 0 01-.652-1.54c0-.578.234-1.132.652-1.54a2.252 2.252 0 011.574-.638c.59 0 1.157.23 1.575.638.417.408.652.962.652 1.54 0 .578-.235 1.132-.652 1.54a2.252 2.252 0 01-1.575.638zm3.563-4.872a.79.79 0 00.8-.781.79.79 0 00-.8-.782.79.79 0 00-.799.782.79.79 0 00.8.781z" fill="#151719"/><path d="M19.01 8.195a3.434 3.434 0 00-.792-1.191A3.525 3.525 0 0017 6.229a5.143 5.143 0 00-1.669-.314c-.735-.032-.968-.04-2.832-.04-1.865 0-2.104 0-2.833.04-.57.01-1.134.117-1.668.314a3.52 3.52 0 00-1.217.775 3.43 3.43 0 00-.793 1.19 4.825 4.825 0 00-.32 1.634c-.033.718-.043.946-.043 2.771 0 1.824 0 2.057.043 2.772.011.558.119 1.11.32 1.633.177.447.447.852.793 1.19A3.53 3.53 0 008 18.97a5.123 5.123 0 001.668.337c.736.031.968.04 2.833.04 1.865 0 2.104 0 2.833-.04a5.151 5.151 0 001.669-.313c.456-.174.87-.438 1.217-.777a3.44 3.44 0 00.793-1.19 4.814 4.814 0 00.32-1.633c.033-.719.043-.947.043-2.772 0-1.825 0-2.056-.043-2.771a4.82 4.82 0 00-.321-1.656zm-.93 7.12c-.004.43-.084.857-.237 1.261-.114.29-.29.555-.515.775-.225.22-.495.391-.792.503-.408.149-.84.227-1.275.233-.725.033-.93.04-2.79.04-1.861 0-2.052 0-2.79-.04a3.862 3.862 0 01-1.275-.233 2.284 2.284 0 01-.795-.502 2.226 2.226 0 01-.518-.776c-.15-.4-.23-.82-.237-1.247-.033-.71-.04-.91-.04-2.73 0-1.82 0-2.006.04-2.73.005-.43.085-.856.237-1.26.233-.59.71-1.053 1.313-1.279a3.9 3.9 0 011.274-.232c.726-.032.93-.041 2.791-.041 1.86 0 2.052 0 2.79.041a3.87 3.87 0 011.275.232c.297.113.567.284.792.505.225.22.4.484.515.774.15.4.23.821.238 1.247.033.71.041.91.041 2.73 0 1.82 0 2.016-.033 2.73h-.008z" fill="#151719"/></svg>