<svg width="146" height="146" fill="none" xmlns="http://www.w3.org/2000/svg"><circle cx="73" cy="73" r="72.5" fill="#C8E982" stroke="#fff"/><circle cx="73" cy="73" r="58.4" fill="#fff"/><path d="M65.46 112v7h-.72v-6.36h-1.65V112h2.37zm3.853-.06c.927 0 1.637.307 2.13.92.494.607.74 1.467.74 2.58 0 .78-.133 1.44-.4 1.98-.266.54-.64.95-1.12 1.23-.48.273-1.04.41-1.68.41-.693 0-1.246-.127-1.66-.38l.29-.58c.334.22.787.33 1.36.33.774 0 1.38-.243 1.82-.73.44-.493.66-1.207.66-2.14 0-.173-.01-.363-.03-.57a1.91 1.91 0 01-.83.89c-.38.207-.816.31-1.31.31-.46 0-.87-.087-1.23-.26a2.011 2.011 0 01-.83-.73c-.2-.32-.3-.69-.3-1.11 0-.427.104-.803.31-1.13.207-.327.49-.577.85-.75.367-.18.777-.27 1.23-.27zm.08 3.64c.354 0 .664-.067.93-.2a1.57 1.57 0 00.64-.55c.154-.233.23-.493.23-.78 0-.267-.073-.513-.22-.74-.14-.227-.35-.41-.63-.55-.28-.14-.613-.21-1-.21-.506 0-.92.14-1.24.42-.313.273-.47.64-.47 1.1 0 .46.157.827.47 1.1.32.273.75.41 1.29.41zm6.116-.58c.734.04 1.29.24 1.67.6.387.353.58.817.58 1.39 0 .4-.096.757-.29 1.07-.193.307-.48.55-.86.73-.38.18-.843.27-1.39.27a4.3 4.3 0 01-1.44-.24c-.446-.167-.806-.387-1.08-.66l.35-.57c.234.24.544.437.93.59.387.147.8.22 1.24.22.574 0 1.017-.123 1.33-.37.314-.253.47-.6.47-1.04 0-.433-.156-.773-.47-1.02-.313-.247-.786-.37-1.42-.37h-.5v-.53l1.94-2.43h-3.58V112h4.5v.51L75.51 115zm9.215 2.16h-1.4V119h-.72v-1.84h-3.95v-.52l3.71-4.64h.8l-3.58 4.52h3.04v-1.62h.7v1.62h1.4v.64z" fill="#000"/><g clip-path="url(#clip0)"><path d="M73.99 42.997h-1.98v18.395h1.98V42.997z" fill="#C8EB82"/><path d="M88.72 50.93a.994.994 0 00-1.336-.416l-11.12 5.736A7.847 7.847 0 0073 59.423a7.846 7.846 0 00-3.264-3.173l-11.12-5.736a.994.994 0 00-1.336.415.973.973 0 00.42 1.32l11.12 5.735a5.843 5.843 0 013.19 5.203V79h1.98V63.188a5.843 5.843 0 013.19-5.204L88.3 52.25a.973.973 0 00.42-1.32z" fill="#AEDB81"/><path d="M96.636 63.874a.994.994 0 00-1.336-.415l-16.908 8.72A11.765 11.765 0 0073 77.885a11.765 11.765 0 00-5.392-5.704L50.7 63.459a.994.994 0 00-1.336.415.974.974 0 00.42 1.32l16.91 8.721c3.267 1.686 5.317 5.028 5.317 8.672V93.83a.966.966 0 01-.801.96c-1.82.288-3.394 1.005-4.489 1.986-.556.498-1.255.807-2.005.807h-2.6a.984.984 0 00-.99.978c0 .54.443.978.99.978h21.768c.547 0 .99-.438.99-.978a.984.984 0 00-.99-.978h-2.6c-.75 0-1.45-.31-2.005-.807-1.095-.98-2.67-1.698-4.489-1.987a.966.966 0 01-.8-.959V82.588c0-3.645 2.05-6.987 5.318-8.673l16.908-8.721a.974.974 0 00.42-1.32z" fill="#95CC81"/><path d="M69.842 95.099c-1.231.368-2.297.945-3.105 1.664-.563.5-1.265.82-2.021.82h-2.6a.984.984 0 00-.99.979c0 .54.443.978.99.978h7.916c0-1.363.36-2.37.83-3.103.45-.705-.212-1.58-1.02-1.338z" fill="#7DBD80"/><path d="M54.468 60.579a.619.619 0 00-.783.28c-.534.998-.646 2.286-.189 3.538.458 1.252 1.377 2.172 2.434 2.602a.617.617 0 00.782-.279c.534-.999.646-2.287.19-3.54-.458-1.251-1.378-2.17-2.434-2.601z" fill="#95CC81"/><path d="M63.125 64.594c.283.148.405.48.283.773-.436 1.045-1.367 1.954-2.633 2.406-1.266.453-2.57.341-3.58-.187a.605.605 0 01-.283-.773c.436-1.045 1.366-1.954 2.633-2.406 1.266-.452 2.57-.341 3.58.187z" fill="#AEDB81"/><path d="M62.625 48.89a.685.685 0 00-.91.324c-.373.809-.43 1.813-.074 2.79.358.977 1.052 1.713 1.861 2.098a.685.685 0 00.91-.325c.373-.808.431-1.812.074-2.79-.357-.977-1.051-1.712-1.86-2.098z" fill="#95CC81"/><path d="M69.517 52.086a.67.67 0 01.329.9c-.39.8-1.134 1.486-2.123 1.839-.988.353-2.004.295-2.822-.074a.67.67 0 01-.328-.899c.39-.8 1.134-1.486 2.122-1.84.989-.353 2.005-.295 2.822.074zm22.015 8.493a.619.619 0 01.783.28c.534.998.646 2.286.189 3.538-.458 1.252-1.377 2.172-2.434 2.602a.619.619 0 01-.782-.279c-.534-.999-.647-2.287-.19-3.54.459-1.25 1.378-2.17 2.434-2.601z" fill="#AEDB81"/><path d="M82.875 64.594a.605.605 0 00-.283.773c.436 1.045 1.367 1.954 2.633 2.406 1.266.453 2.57.341 3.58-.187a.605.605 0 00.283-.773c-.436-1.045-1.366-1.954-2.633-2.406-1.266-.452-2.57-.341-3.58.187z" fill="#95CC81"/><path d="M83.375 48.89a.685.685 0 01.91.324c.373.809.43 1.813.074 2.79-.358.977-1.051 1.713-1.861 2.098a.685.685 0 01-.91-.325c-.373-.808-.431-1.812-.074-2.79.357-.976 1.05-1.712 1.86-2.098z" fill="#AEDB81"/><path d="M76.483 52.086a.67.67 0 00-.329.9c.39.8 1.134 1.486 2.123 1.839.989.353 2.004.295 2.822-.074a.67.67 0 00.328-.899c-.39-.8-1.134-1.486-2.122-1.84-.989-.353-2.005-.295-2.822.074z" fill="#95CC81"/><path d="M68.106 37.96a.55.55 0 00-.551.492c-.098 1.196.353 2.538 1.35 3.632.998 1.092 2.303 1.673 3.516 1.7a.55.55 0 00.551-.492c.098-1.196-.353-2.538-1.35-3.632-.998-1.093-2.303-1.673-3.516-1.7z" fill="#AEDB81"/><path d="M77.88 37.96a.55.55 0 01.551.492c.098 1.196-.353 2.538-1.35 3.632-.998 1.092-2.303 1.673-3.516 1.7a.55.55 0 01-.552-.492c-.097-1.196.354-2.538 1.351-3.632.998-1.093 2.303-1.673 3.515-1.7z" fill="#C8EB82"/><path d="M55.19 73.13c1.639 0 2.968-1.314 2.968-2.935 0-1.62-1.33-2.934-2.969-2.934-1.64 0-2.968 1.314-2.968 2.934s1.329 2.935 2.968 2.935z" fill="#FFE07D"/><path d="M56.2 72.131c-1.64 0-2.97-1.314-2.97-2.934 0-.554.157-1.073.427-1.515a2.922 2.922 0 00-1.436 2.513c0 1.62 1.329 2.935 2.968 2.935a2.97 2.97 0 002.543-1.42 2.988 2.988 0 01-1.533.421z" fill="#FFE606"/><path d="M90.81 73.13c1.64 0 2.97-1.314 2.97-2.935 0-1.62-1.33-2.934-2.97-2.934-1.639 0-2.968 1.314-2.968 2.934s1.33 2.935 2.969 2.935z" fill="#FFE07D"/><path d="M91.821 72.131c-1.64 0-2.968-1.314-2.968-2.934 0-.554.155-1.075.424-1.516a2.923 2.923 0 00-1.434 2.514c0 1.621 1.329 2.935 2.968 2.935a2.97 2.97 0 002.542-1.42 2.988 2.988 0 01-1.532.421z" fill="#FFE606"/><path d="M83.019 58.335c1.093 0 1.979-.876 1.979-1.956s-.886-1.957-1.98-1.957a1.968 1.968 0 00-1.978 1.957c0 1.08.886 1.956 1.979 1.956z" fill="#FFE07D"/><path d="M83.692 57.67a1.968 1.968 0 01-1.979-1.957c0-.37.104-.716.284-1.01a1.949 1.949 0 00-.957 1.676c0 1.08.886 1.956 1.979 1.956a1.98 1.98 0 001.694-.947 1.993 1.993 0 01-1.02.281z" fill="#FFE606"/><path d="M63.017 58.335a1.968 1.968 0 001.98-1.956c0-1.08-.887-1.957-1.98-1.957s-1.979.876-1.979 1.957c0 1.08.886 1.956 1.98 1.956z" fill="#FFE07D"/><path d="M63.69 57.67a1.968 1.968 0 01-1.978-1.957c0-.37.104-.715.284-1.01a1.948 1.948 0 00-.958 1.676c0 1.08.886 1.956 1.98 1.956a1.98 1.98 0 001.694-.947 1.988 1.988 0 01-1.022.281z" fill="#FFE606"/></g><path d="M84.766 100.426c0-.489-.363-.884-.811-.886h-21.91c-.448.002-.81.397-.812.886v.885h7.73c-.049.465-.353 1.208-1.643 1.77-.071.031-.133.066-.198.099a.442.442 0 00-.1-.133c-.34-.303-1.54-1.224-2.768-.332a1.145 1.145 0 01-.84.308.324.324 0 01-.2-.147c-.102-.218-.347-.303-.546-.191a.463.463 0 00-.175.597c.15.294.403.508.701.593.106.03.215.045.325.044a2.071 2.071 0 001.186-.468 1.37 1.37 0 011.713.205 2.263 2.263 0 00-.697 1.203c-.008 0-.015-.006-.024-.006-1.605 0-2.029 1.159-2.029 1.771 0 .244.182.443.406.443.224 0 .406-.199.406-.443 0-.032.01-.692.831-.851.054.612.238 1.292.791 1.292.201 0 .372-.16.402-.377a.445.445 0 00-.282-.488 3.126 3.126 0 01-.12-.905c0-.015-.006-.027-.007-.041.819-.816 1.499-.358 2.488-.561a1.837 1.837 0 00.478 1.357c.153.15.254.352.287.573 0 .244.182.442.406.442.224 0 .406-.198.406-.442a1.869 1.869 0 00-.525-1.199 1.118 1.118 0 01-.174-1.093c1.109-.701 1.408-2.255 1.486-3.02h.06a4.93 4.93 0 001.181 2.656c.478.44 1.034.768 1.633.961.009.06.029.118.059.17.186.285.285.627.28.977a.217.217 0 01-.124.152.462.462 0 00-.182.594c.1.218.344.307.545.198.27-.139.47-.401.546-.716a1.849 1.849 0 00-.058-.94 2.71 2.71 0 011.478.687l.811.886c.16.167.413.165.57-.006a.471.471 0 00.004-.62l-.811-.886c-.832-.907-2.321-1.003-2.653-1.013a4.672 4.672 0 01-.576-1.471 5.855 5.855 0 01-.105-1.629h.815l-.004.062a4.922 4.922 0 00.102 1.43 5.736 5.736 0 012.545.343.45.45 0 00.175.304c.338.246 1.037.912 1.037 1.402a1.7 1.7 0 00.424 1.307 1.41 1.41 0 001.199.464c.224 0 .405-.198.405-.443 0-.244-.181-.443-.405-.443-.584 0-.812-.248-.812-.885a2.319 2.319 0 00-.645-1.439 2.778 2.778 0 011.637.479c1.423 1.034 2.029.504 2.135.388a.473.473 0 00.016-.606.382.382 0 00-.554-.055c-.044.016-.369.103-1.146-.463a3.944 3.944 0 00-2.962-.549 3.302 3.302 0 00-1.147-1.296h8.346v-.885z" fill="#95CC81"/><path d="M4.848 54.075l1.732-4.27.526.214-1.486 3.66 1.91.776.775-1.91c.28-.69.633-1.155 1.061-1.396.43-.246.915-.26 1.455-.04.561.227.913.596 1.055 1.107.145.506.07 1.12-.223 1.843l-.967 2.385-5.838-2.369zm6.31-.208c.219-.539.28-.986.185-1.342-.092-.362-.342-.625-.748-.79-.4-.162-.753-.146-1.058.047-.308.186-.574.554-.798 1.104l-.717 1.768 2.419.981.717-1.768zm5.349-9.279a2.49 2.49 0 01-.906.89 2.29 2.29 0 01-1.188.285 2.451 2.451 0 01-1.223-.382 2.451 2.451 0 01-.894-.918 2.232 2.232 0 01-.276-1.184c.017-.418.146-.822.384-1.21.239-.39.54-.686.906-.891a2.17 2.17 0 011.176-.281c.422.012.83.14 1.223.381.394.242.692.548.894.918.205.366.301.76.289 1.181a2.49 2.49 0 01-.385 1.21zm-.483-.297a1.79 1.79 0 00.28-.884 1.62 1.62 0 00-.23-.881 2.019 2.019 0 00-.704-.696 2.019 2.019 0 00-.938-.312 1.563 1.563 0 00-.882.198 1.737 1.737 0 00-.67.644 1.784 1.784 0 00-.277.897c-.01.304.064.596.223.876.162.276.396.508.703.696.307.188.62.292.938.312.322.015.619-.05.89-.193.269-.151.491-.37.667-.657zm4.308-11.934l-1.156 1.368 3.183 2.689-.412.488-3.183-2.69-1.156 1.369-.433-.366 2.724-3.224.433.366zm5.59-6.39c.465-.407.925-.601 1.379-.584.45.014.874.248 1.273.704l1.93 2.21-.46.402-.486-.555c.054.28.02.564-.102.854-.116.285-.32.554-.609.807-.397.348-.796.53-1.197.545a1.22 1.22 0 01-1.01-.444c-.265-.303-.37-.641-.314-1.016.059-.379.328-.778.807-1.196l1.132-.99-.19-.216c-.269-.308-.558-.465-.868-.473-.314-.013-.635.125-.965.413-.226.198-.41.426-.55.684a2.116 2.116 0 00-.268.773l-.531-.17c.046-.31.16-.618.342-.92a3.29 3.29 0 01.687-.828zm2.668 3.394c.271-.237.45-.502.538-.794a1.5 1.5 0 00-.04-.92l-.51-.583-1.118.977c-.61.533-.729 1.012-.358 1.437a.786.786 0 00.67.287c.26-.02.534-.156.818-.404zm4.943-9.261l.544-.336 1.102 1.784 2.534-1.565-1.102-1.785.544-.335 2.487 4.028-.543.336-1.097-1.777-2.535 1.565 1.097 1.777-.544.335-2.487-4.028zm10.72-5.886l.593-.238 1.398 3.493 1.535-4.667.526-.21 1.76 4.394-.594.238-1.398-3.493-1.526 4.664-.535.213-1.76-4.394zM59.294 9.51l1.012 4.625-.624.137-.421-1.926a3.974 3.974 0 01-1.497.697c-.557.122-1.018.09-1.384-.094-.367-.19-.607-.54-.718-1.05l-.333-1.52.624-.137.325 1.486c.076.346.245.585.508.718.26.127.588.148.98.062.434-.095.896-.316 1.385-.663l-.481-2.198.624-.136zm11.848 1.248l-3.953.228c.064.49.275.877.634 1.162.359.28.799.405 1.32.375.294-.017.56-.083.8-.2.24-.121.443-.289.611-.503l.383.393a2.02 2.02 0 01-.757.62 2.63 2.63 0 01-1.022.257 2.686 2.686 0 01-1.312-.23 2.28 2.28 0 01-.921-.813 2.45 2.45 0 01-.386-1.222c-.026-.461.049-.88.225-1.257.183-.377.442-.678.778-.901a2.336 2.336 0 011.168-.374c.438-.025.836.054 1.195.238.36.184.648.452.867.806.218.348.34.756.368 1.223l.002.198zm-2.4-1.917c-.455.026-.83.195-1.125.507-.289.305-.44.692-.456 1.162l3.352-.193c-.07-.465-.268-.832-.596-1.102-.322-.276-.714-.4-1.175-.374zm10.819 4.472a2.577 2.577 0 01-1.223-.43 2.232 2.232 0 01-.773-.938 2.5 2.5 0 01-.188-1.277 2.45 2.45 0 01.438-1.204c.246-.343.56-.597.945-.764.39-.165.819-.224 1.285-.177.406.04.759.158 1.059.35.306.188.537.444.691.767l-.507.274a1.459 1.459 0 00-.538-.579 1.726 1.726 0 00-.761-.257 1.85 1.85 0 00-.946.14 1.62 1.62 0 00-.701.58 2.019 2.019 0 00-.32.936c-.037.364.005.694.126.99a1.7 1.7 0 00.57.708c.26.177.56.283.9.317.28.028.546-.002.796-.091.25-.09.465-.243.644-.46l.442.37a1.84 1.84 0 01-.832.622 2.479 2.479 0 01-1.107.123zm10.581-.283l-1.044-.277-.538 2.036-.618-.164 1.21-4.576.618.163-.531 2.01 1.053.279 2.14-1.584.67.177-2.387 1.742 1.308 2.869-.731-.193-1.15-2.483zm9.716.426l.583.263-1.547 3.429 4.426-2.13.517.233-1.947 4.315-.582-.263 1.547-3.429-4.419 2.134-.525-.237 1.947-4.315zm10.876 5.591l.529.36-2.113 3.112 4.727-1.339.469.319-2.658 3.917-.529-.36 2.112-3.112-4.719 1.344-.476-.323 2.658-3.918zm2.164.642c-.337-.229-.548-.495-.632-.799-.084-.303-.024-.61.18-.922l.379.258a.752.752 0 00-.11.61c.057.206.192.38.406.526.213.145.426.205.637.182a.736.736 0 00.534-.322l.38.257c-.214.305-.48.472-.798.503-.313.034-.638-.064-.976-.293zm10.895 17.106a2.589 2.589 0 01-.571-1.164 2.244 2.244 0 01.104-1.211c.152-.4.405-.747.76-1.043.355-.296.741-.48 1.156-.553a2.233 2.233 0 011.21.117c.395.156.742.413 1.042.773.261.313.431.644.51.992.087.349.073.693-.043 1.031l-.555-.159c.08-.27.087-.533.021-.79a1.725 1.725 0 00-.362-.717 1.855 1.855 0 00-.773-.563 1.622 1.622 0 00-.907-.076 2.019 2.019 0 00-.884.443c-.281.234-.482.5-.603.795a1.701 1.701 0 00-.089.906c.061.308.201.593.42.856.181.217.391.38.633.492.241.112.501.153.781.123l.056.574a1.84 1.84 0 01-1.029-.14 2.487 2.487 0 01-.877-.686zm9.997 5.769c.315.531.423 1.018.324 1.461-.095.44-.402.815-.923 1.125l-2.522 1.499-.313-.526.634-.377a1.46 1.46 0 01-.821-.255c-.26-.167-.488-.415-.684-.745-.27-.454-.376-.88-.319-1.277a1.22 1.22 0 01.62-.912c.345-.206.697-.248 1.056-.126.362.127.705.464 1.03 1.01l.768 1.293.248-.147c.35-.209.558-.465.622-.768.069-.306-.008-.648-.232-1.024a2.497 2.497 0 00-.573-.665 2.12 2.12 0 00-.712-.404l.263-.491a2.5 2.5 0 01.844.503c.27.23.499.506.69.826zm-3.821 2.01c.184.309.411.533.682.672.277.136.581.178.914.127l.665-.395-.759-1.277c-.414-.696-.863-.9-1.348-.612a.787.787 0 00-.404.607c-.026.26.057.552.25.877zm6.014 12.354l-1.581.629-.223-.56 1.063-.423-1.566-3.94-1.062.423-.223-.56 1.581-.629.1.251c.134.29.431.404.891.343.461-.06 1.075-.22 1.843-.48l1.495-.527 1.29 3.245-3.881 1.543.273.685zm1.006-4.39a11.91 11.91 0 01-1.611.457c-.432.081-.764.052-.994-.09l1.09 2.744 3.354-1.333-.841-2.116-.998.339zM19.405 101.287l-5.886 2.245-.234-.613L16 101.883l-1.405-3.684-2.716 1.036-.237-.622 5.886-2.245.237.622-2.623 1 1.404 3.684 2.624-1.001.234.614zm3.528 6.539l-5.558 2.967-.309-.58 2.564-1.369-1.856-3.477-2.565 1.369-.313-.588 5.557-2.967.314.588-2.477 1.322 1.857 3.477 2.477-1.322.309.58zm3.106 5.375l-1.914-2.758-4.697 3.27-.375-.539 5.176-3.592 2.283 3.29-.473.329zm5.225 5.107l-5.875 1.332c-.42.095-.79.1-1.111.014a1.566 1.566 0 01-.79-.493 2.036 2.036 0 01-.38-.695l.53-.213c.08.218.178.394.297.53.272.312.665.419 1.177.322l.349-.066 1.971-5.117.468.536-1.767 4.46 4.692-1.112.439.502zm3.822 5.371l.505.392-2.303 2.974 4.8-1.04.45.347-2.9 3.743-.504-.391 2.303-2.975-4.794 1.046-.455-.353 2.898-3.743zm10.26 6.797l-2.425 4.066-.502-.3 1.918-3.215-3.27 1.739-.247-.148-.019-3.71-1.922 3.223-.503-.3 2.425-4.065.557.332-.024 3.957 3.502-1.883.51.304zm.154 5.26a.47.47 0 01-.247-.277.494.494 0 01.028-.375.465.465 0 01.268-.251.468.468 0 01.37.015.47.47 0 01.248.277.447.447 0 01-.015.37.477.477 0 01-.28.256.468.468 0 01-.371-.015zm11.389-2.373l-2.125 5.931-.619-.222.98-2.737-3.71-1.329-.98 2.737-.628-.225 2.125-5.931.627.225-.947 2.643 3.711 1.33.947-2.644.619.222zm.518 6.563a.47.47 0 01-.297-.224.493.493 0 01-.045-.373.466.466 0 01.215-.299.47.47 0 01.367-.056.47.47 0 01.296.224c.071.11.09.233.056.366a.48.48 0 01-.226.306.47.47 0 01-.366.056zm5.512-5.31l.65.098-.782 5.162 4.768-4.558.596.09-.943 6.229-.65-.098.78-5.153-4.766 4.549-.596-.09.943-6.229zm6.978 7.128a.467.467 0 01-.334-.162.495.495 0 01-.116-.358.464.464 0 01.153-.334.466.466 0 01.349-.125.467.467 0 01.334.162.448.448 0 01.125.349.478.478 0 01-.162.343.47.47 0 01-.35.125zm9.323-6.487l.274 6.294-.657.029-.25-5.719-3.038.133.02 2.107c.008.871-.034 1.575-.124 2.113-.085.533-.236.936-.452 1.209-.217.268-.514.41-.891.427a2.17 2.17 0 01-.507-.041l.028-.596c.103.019.203.027.299.023a.77.77 0 00.624-.343c.159-.217.27-.546.336-.987.064-.448.096-1.034.094-1.761l-.028-2.701 4.271-.187zm5.254 5.554c-.45.072-.873.037-1.266-.106a2.297 2.297 0 01-.99-.716 2.442 2.442 0 01-.51-1.176 2.45 2.45 0 01.114-1.276c.149-.395.388-.722.717-.982a2.5 2.5 0 011.168-.498c.45-.073.872-.037 1.266.106s.72.379.98.708c.266.328.435.72.51 1.176a2.45 2.45 0 01-.114 1.276 2.227 2.227 0 01-.707.989 2.49 2.49 0 01-1.168.499zm-.09-.56c.331-.054.615-.175.852-.366a1.62 1.62 0 00.517-.748c.104-.303.127-.632.07-.987a2.023 2.023 0 00-.376-.915 1.564 1.564 0 00-.725-.539 1.73 1.73 0 00-.926-.088 1.78 1.78 0 00-.86.376c-.237.19-.41.436-.519.74a2.017 2.017 0 00-.069.986c.058.356.183.661.376.915.198.254.44.437.726.548.29.106.602.131.933.078zm5.959-5.612a2.285 2.285 0 011.207-.022c.386.094.719.286.997.577.277.285.475.645.593 1.079.122.445.132.869.03 1.27a2.1 2.1 0 01-.59 1.019c-.295.286-.668.49-1.12.614-.758.207-1.418.101-1.98-.318-.562-.419-.971-1.097-1.227-2.035-.267-.978-.287-1.778-.058-2.4.234-.624.722-1.136 1.464-1.538l1.921-1.028.259.536-1.807.969c-.615.323-1.025.712-1.23 1.166-.208.448-.228 1.035-.06 1.761.088-.404.27-.749.547-1.036a2.204 2.204 0 011.054-.614zm.995 4.02c.318-.087.582-.237.792-.45.213-.22.353-.482.42-.786a1.927 1.927 0 00-.03-.962 1.887 1.887 0 00-.45-.829 1.498 1.498 0 00-.752-.429 1.742 1.742 0 00-.918.017 1.8 1.8 0 00-.81.454 1.582 1.582 0 00-.429.752c-.07.293-.058.607.034.942.091.336.243.618.455.847.217.226.473.38.77.461.293.075.6.07.918-.017zm4.407-6.094c.575-.225 1.073-.253 1.495-.082.418.164.738.529.959 1.093l1.07 2.732-.57.223-.27-.687a1.458 1.458 0 01-.385.769c-.206.229-.489.414-.846.554-.492.192-.929.228-1.311.107a1.22 1.22 0 01-.8-.76c-.147-.374-.13-.728.048-1.062.184-.336.572-.62 1.164-.852l1.4-.548-.105-.268c-.149-.38-.367-.626-.656-.739-.291-.118-.64-.097-1.049.063a2.459 2.459 0 00-.748.457 2.12 2.12 0 00-.515.636l-.442-.339c.15-.277.36-.528.634-.751.271-.228.58-.41.927-.546zm1.361 4.096c.336-.131.594-.319.775-.564.18-.25.27-.544.274-.88l-.282-.721-1.383.541c-.754.296-1.029.706-.823 1.231.1.257.278.423.533.497.252.069.554.034.906-.104zm6.206-7.698l2.185 4.2-.567.295-.91-1.749a3.974 3.974 0 01-1.263 1.063c-.506.263-.959.353-1.36.271-.404-.087-.727-.362-.967-.826l-.719-1.381.567-.295.702 1.35c.163.314.389.501.677.56.285.055.606-.011.963-.196.394-.205.782-.539 1.163-1.001l-1.038-1.996.567-.295zm7.291-1.698l-3.298 2.19c.302.39.68.618 1.134.684.451.061.894-.053 1.329-.342.245-.163.441-.355.59-.576a1.82 1.82 0 00.273-.743l.529.146a2.014 2.014 0 01-.341.918 2.636 2.636 0 01-.753.737 2.678 2.678 0 01-1.248.462 2.277 2.277 0 01-1.206-.237 2.44 2.44 0 01-.949-.86 2.568 2.568 0 01-.44-1.199c-.032-.418.04-.808.217-1.17a2.33 2.33 0 01.82-.912 2.287 2.287 0 011.152-.398c.402-.022.787.064 1.155.259.364.191.675.481.934.871l.102.17zm-3.039-.445c-.38.252-.619.587-.716 1.005-.095.409-.031.82.193 1.233l2.796-1.857c-.294-.367-.65-.584-1.07-.651-.417-.076-.818.014-1.203.27zm7.173-3.339c.59-.295 1.084-.202 1.483.278.264.319.35.661.256 1.028-.094.366-.373.742-.84 1.13l-1.655 1.373-3.024-3.642 1.607-1.334c.416-.345.808-.534 1.178-.568.369-.034.679.099.928.399.165.199.251.416.259.651.009.226-.055.455-.192.685zm-1.957 1.391l1.095-.909c.281-.233.452-.465.511-.693.065-.233.012-.451-.156-.654-.169-.203-.371-.292-.608-.268-.232.022-.489.149-.771.383l-1.094.908 1.023 1.233zm2.514.674c.313-.261.507-.507.579-.739.073-.232.019-.456-.161-.673-.18-.217-.384-.317-.611-.3-.231.013-.502.148-.811.404l-1.205 1.001 1.052 1.267 1.157-.96zm5.261-4.291a2.564 2.564 0 01-1.098.69c-.401.12-.806.128-1.215.024a2.502 2.502 0 01-1.116-.647 2.445 2.445 0 01-.671-1.091 2.233 2.233 0 01-.011-1.216c.113-.409.333-.781.659-1.116a2.37 2.37 0 01.933-.612 1.788 1.788 0 011.031-.065l-.101.568a1.447 1.447 0 00-.788.062 1.718 1.718 0 00-.675.436 1.848 1.848 0 00-.478.827c-.081.298-.075.602.019.91.097.304.275.582.533.833.263.255.547.427.854.516.307.081.61.079.91-.006.3-.094.569-.263.808-.508a1.81 1.81 0 00.423-.681c.086-.251.099-.514.04-.789l.565-.117c.089.347.079.693-.03 1.038a2.482 2.482 0 01-.592.944zm2.628-6.433l-.666.85 1.658 1.299-.395.503-3.725-2.921.394-.503 1.636 1.283.672-.857-.609-2.593.427-.546.657 2.882 3.152-.067-.466.595-2.735.075zm5.731-4.615a2.478 2.478 0 01-.912.884 2.298 2.298 0 01-1.191.275 2.46 2.46 0 01-1.22-.39 2.46 2.46 0 01-.887-.926 2.23 2.23 0 01-.267-1.185c.021-.419.152-.821.393-1.208.242-.387.546-.682.913-.884.367-.202.76-.293 1.178-.272.422.015.828.146 1.22.39.392.245.688.553.887.925.202.367.296.762.28 1.183a2.486 2.486 0 01-.394 1.208zm-.48-.3c.178-.285.273-.579.285-.883a1.617 1.617 0 00-.223-.882 2.016 2.016 0 00-.698-.701 2.01 2.01 0 00-.936-.319 1.56 1.56 0 00-.883.191 1.733 1.733 0 00-.675.639 1.779 1.779 0 00-.283.895c-.013.304.059.596.216.878.159.277.392.51.697.701.306.191.618.297.936.319.322.017.619-.045.891-.186.27-.15.495-.367.673-.652zm.57-8.925l-1.194 2.432 3.74 1.836-.282.574-4.249-2.087 1.476-3.005.509.25zm5.551-2.767a2.498 2.498 0 01-.715 1.05 2.3 2.3 0 01-1.111.51 2.45 2.45 0 01-1.274-.136 2.45 2.45 0 01-1.055-.727 2.233 2.233 0 01-.502-1.107 2.485 2.485 0 01.142-1.262 2.48 2.48 0 01.715-1.05c.318-.272.684-.44 1.098-.505.417-.07.841-.024 1.275.136.433.16.785.403 1.055.727.272.318.443.686.513 1.102.064.414.017.835-.141 1.262zm-.532-.197c.117-.315.151-.622.102-.922a1.621 1.621 0 00-.398-.819 2.014 2.014 0 00-.825-.545 2.017 2.017 0 00-.981-.124 1.561 1.561 0 00-.826.366 1.73 1.73 0 00-.532.763 1.776 1.776 0 00-.096.933c.048.3.178.572.388.816.213.239.488.42.825.546.338.125.665.166.981.123a1.71 1.71 0 00.835-.362c.235-.202.41-.46.527-.775z" fill="#000"/><defs><clipPath id="clip0"><path fill="#fff" transform="translate(41.853 37.96)" d="M0 0h62.293v61.58H0z"/></clipPath></defs></svg>