<svg width="112" height="116" fill="none" xmlns="http://www.w3.org/2000/svg"><path d="M99.869 58.072c0 24.396-19.777 44.172-44.173 44.172S11.524 82.468 11.524 58.072c0-24.396 19.776-44.173 44.172-44.173 24.396 0 44.173 19.777 44.173 44.173z" fill="#E2ABCC"/><path d="M6.05 34.34c.258-.681.595-1.23 1.01-1.646.417-.423.886-.69 1.407-.8.521-.11 1.07-.056 1.646.162.568.216 1.014.54 1.338.97.317.429.491.94.522 1.533.035.587-.077 1.22-.336 1.9l-.672 1.773 2.266.86-.554 1.459-7.853-2.98 1.226-3.232zm4.328 1.719c.241-.636.29-1.17.145-1.6-.144-.432-.467-.743-.968-.933-.501-.19-.949-.172-1.343.055-.394.227-.712.658-.953 1.294l-.647 1.705 3.118 1.184.648-1.705zm9.032-9.885l1.104.702-3.382 5.315-7.087-4.51 3.291-5.173 1.104.702-2.454 3.858 1.842 1.172 2.178-3.422 1.083.69-2.177 3.421 1.954 1.244 2.544-4zm6.034-8.754l-.996 1.04 2.557 2.448-1.054 1.101-2.557-2.448-.996 1.04 1.088 3.983-1.244 1.3-1.339-4.936-4.605-1.003 1.146-1.196 3.958.949 1.021-1.066-2.54-2.432 1.054-1.1 2.54 2.431 1.004-1.049-1.113-3.922 1.146-1.196 1.22 4.556 4.972 1.122-1.245 1.3-4.017-.922zm2.096-6.41l1.302-.816 3.165 5.056.66-7.45 1.23-.77 4.457 7.12-1.302.815-3.158-5.045-.666 7.439-1.23.77-4.458-7.12zm22.566.127l-1.69-5.306-1.243 5.226-.663.21-4-3.493 1.657 5.24-1.407.446-2.532-8.01 1.224-.387 4.844 4.296 1.46-6.29 1.213-.383 2.556 8.002-1.42.449zm12.715-7.619c.727.033 1.353.182 1.878.447.532.265.931.628 1.198 1.089.267.46.387.998.358 1.614-.028.607-.197 1.132-.505 1.574-.309.434-.74.759-1.295.973-.546.215-1.183.306-1.91.272L60.65 9.4l-.113 2.422-1.558-.072.389-8.391 3.452.16zm-.287 4.647c.68.032 1.201-.088 1.566-.36.365-.271.56-.675.585-1.21.025-.535-.132-.955-.47-1.259-.339-.304-.848-.472-1.527-.503l-1.822-.085-.154 3.333 1.822.084zm11.404 4.603l-4.074-1.02-1.276 1.683-1.56-.39 5.71-7.23 1.49.374 1.635 9.07-1.584-.397-.341-2.09zm-.203-1.312l-.644-3.947-2.418 3.18 3.062.767zm6.752-2.308l5.894 2.837-.557 1.157-4.51-2.17-.894 1.86 2.238 1.076c.908.438 1.505.96 1.79 1.568.295.603.27 1.262-.073 1.976-.36.75-.9 1.205-1.616 1.366-.713.154-1.55 0-2.508-.461l-3.406-1.64 3.642-7.569zm.209 8.09c.54.261 1.001.354 1.383.28.382-.073.668-.308.859-.705.375-.778.01-1.433-1.092-1.964l-1.947-.937-1.15 2.39 1.947.937zm6.868 6.874c-.682-.516-1.187-1.128-1.514-1.837a4.19 4.19 0 01-.36-2.211 4.285 4.285 0 01.87-2.126c.492-.651 1.092-1.12 1.8-1.407a4.078 4.078 0 012.226-.258c.776.114 1.505.43 2.188.946.683.516 1.185 1.131 1.507 1.846.327.708.45 1.443.367 2.202-.083.76-.373 1.468-.87 2.126-.496.657-1.099 1.13-1.807 1.417a4.19 4.19 0 01-2.226.258c-.77-.121-1.498-.44-2.18-.956zm.825-1.091c.447.337.924.542 1.43.614a2.788 2.788 0 001.48-.206c.48-.209.888-.537 1.225-.984.338-.447.54-.926.605-1.438a2.681 2.681 0 00-.205-1.479 2.993 2.993 0 00-.975-1.218 2.994 2.994 0 00-1.438-.605c-.507-.072-1-.004-1.48.206-.473.203-.88.528-1.217.975a3.06 3.06 0 00-.612 1.447 2.788 2.788 0 00.205 1.48c.208.467.535.87.982 1.207zm13.544 7.177l-1.743-2.172-5.521 4.432-.97-1.207 5.522-4.432-1.735-2.162 1.03-.826 4.446 5.54-1.029.827zm1.241 6.106c.506.871.697 1.654.572 2.346-.114.696-.555 1.266-1.323 1.712-.803.466-1.567.568-2.293.305-.72-.267-1.349-.864-1.887-1.79l-1.814-3.124 7.263-4.219.772 1.328-2.459 1.429 1.169 2.013zm-3.93 1.907c.306.526.662.86 1.069 1.004.407.143.842.08 1.305-.19.879-.51 1.001-1.312.366-2.405l-1.007-1.732-2.739 1.59 1.007 1.733zm8.571.42l.772 1.329-7.264 4.219-.772-1.328 7.264-4.22zm-2.805 43.422c-.316.656-.698 1.173-1.147 1.552-.452.386-.943.612-1.471.677-.529.065-1.071-.036-1.626-.303-.548-.263-.964-.624-1.25-1.081-.28-.454-.409-.978-.39-1.572.017-.587.183-1.209.499-1.865l.822-1.708-2.184-1.051.676-1.406 7.569 3.643-1.498 3.114zm-4.165-2.084c-.295.613-.389 1.14-.282 1.582.107.442.402.78.885 1.012.483.232.931.252 1.343.06.412-.192.765-.595 1.06-1.208l.791-1.643-3.006-1.447-.791 1.644zM91.9 89.34l-1.044-.789 3.798-5.026 6.702 5.064-3.697 4.893-1.044-.789 2.757-3.647-1.743-1.317-2.445 3.236-1.025-.775 2.446-3.235-1.848-1.397L91.9 89.34zm-6.445 8.987l1.103-.926-2.276-2.712 1.168-.98 2.275 2.712 1.104-.925-.649-4.077 1.379-1.157.793 5.052 4.469 1.498-1.269 1.064-3.832-1.374-1.13.949 2.26 2.693-1.168.98-2.26-2.693-1.112.933.679 4.02-1.269 1.065-.716-4.663-4.821-1.656 1.379-1.157 3.893 1.354zm-2.171 7.322l-1.384.666-2.586-5.374-1.48 7.331-1.308.63-3.642-7.569 1.384-.666 2.58 5.363 1.485-7.32 1.309-.63 3.642 7.569zm-21.85-1.377l1.097 5.459 1.81-5.057.682-.136 3.591 3.911-1.071-5.39 1.448-.288 1.637 8.239-1.26.25-4.343-4.802-2.142 6.091-1.248.247-1.66-8.234 1.46-.29zm-13.197 8.121c-.721-.096-1.332-.297-1.832-.605-.508-.309-.876-.704-1.103-1.186-.227-.482-.3-1.028-.22-1.639.08-.603.292-1.111.637-1.526.344-.406.801-.693 1.372-.86.563-.168 1.205-.204 1.927-.109l1.88.247.316-2.403 1.547.204-1.097 8.328-3.427-.451zm.68-4.607c-.674-.089-1.205-.014-1.591.226-.387.239-.615.625-.685 1.156-.07.532.05.963.362 1.295.311.331.804.541 1.478.63l1.808.238.436-3.307-1.808-.238zm-11.227-4.749l3.97 1.372 1.417-1.567 1.52.525-6.316 6.705-1.452-.502-.841-9.177 1.542.533.16 2.111zm.087 1.326l.298 3.988 2.685-2.958-2.983-1.03zm-7.159 2.578l-5.631-3.326.653-1.106 4.308 2.545 1.05-1.777-2.139-1.263c-.867-.513-1.417-1.084-1.65-1.713-.242-.627-.163-1.281.24-1.963.423-.717.999-1.125 1.727-1.224.724-.093 1.544.131 2.46.672l3.254 1.923-4.272 7.232zm.48-8.079c-.517-.305-.969-.437-1.355-.396-.387.041-.692.251-.916.63-.44.744-.132 1.427.922 2.05l1.86 1.098 1.348-2.283-1.86-1.099zm-6.878-6.827c.622.587 1.057 1.25 1.305 1.99a4.19 4.19 0 01.116 2.238 4.285 4.285 0 01-1.096 2.018c-.56.594-1.208.995-1.943 1.203a4.077 4.077 0 01-2.24.014c-.759-.198-1.45-.592-2.072-1.179-.623-.587-1.055-1.254-1.298-2a4.104 4.104 0 01-.124-2.228c.165-.747.53-1.42 1.096-2.019.565-.6 1.216-1.003 1.951-1.21a4.189 4.189 0 012.24-.015c.754.204 1.441.6 2.064 1.188zm-.94.995a3.068 3.068 0 00-1.355-.767 2.78 2.78 0 00-1.492.043c-.5.156-.941.438-1.326.845a2.993 2.993 0 00-.758 1.363 2.682 2.682 0 00.043 1.493c.15.494.43.933.837 1.317.407.384.861.637 1.363.758.496.127.994.113 1.493-.043.493-.15.932-.429 1.317-.836a3.06 3.06 0 00.766-1.372c.122-.502.107-1-.043-1.493a3.069 3.069 0 00-.845-1.308zM9.66 85.637l1.604 2.275 5.786-4.08.892 1.264-5.786 4.08 1.598 2.266-1.079.761-4.094-5.805 1.079-.761zm-1.372-6.216c-.406-.922-.509-1.72-.308-2.395.19-.678.692-1.197 1.505-1.555.85-.374 1.62-.39 2.313-.049.685.345 1.244 1.008 1.676 1.99l1.457 3.304-7.687 3.388-.62-1.406 2.603-1.147-.939-2.13zm4.117-1.46c-.245-.556-.562-.928-.95-1.115-.389-.188-.829-.173-1.319.043-.93.41-1.14 1.193-.63 2.35l.808 1.833 2.9-1.277-.809-1.834zm-8.471-1.368l-.62-1.406 7.687-3.387.62 1.406-7.687 3.387z" fill="#fff"/><g clip-path="url(#clip0)"><path d="M50.555 74.976l-.317-.099a2.024 2.024 0 01-1.198-1.04c-.552-1.122-.188-2.38 1.915-8.304.195-.55.418-1.178.64-1.814-.553.42-1.096.836-1.572 1.203-4.62 3.547-5.815 4.377-6.951 4.378h-.002a2.036 2.036 0 01-1.664-.835 2.022 2.022 0 01-.358-1.543c.21-1.225 1.15-1.958 6.341-5.525.508-.35 1.088-.748 1.671-1.154-.603.014-1.227.03-1.84.046-1.455.039-2.959.079-4.213.079-1.061 0-1.822-.029-2.393-.087-2.251-.235-2.587-1.484-2.587-2.209 0-2.295 2.533-2.295 4.982-2.295 1.253 0 2.756.04 4.21.079.614.016 1.238.033 1.843.046-.584-.406-1.165-.806-1.673-1.155-5.19-3.567-6.13-4.299-6.34-5.525a2.017 2.017 0 01.357-1.542c.386-.53.993-.835 1.665-.835 1.136 0 2.33.83 6.95 4.376.477.366 1.021.784 1.574 1.203-.222-.636-.445-1.263-.641-1.815-2.102-5.923-2.466-7.181-1.914-8.302.247-.5.672-.87 1.196-1.041l.291-.094.332-.005c1.877 0 2.28 1.362 4.213 7.9.187.635.403 1.366.624 2.097.222-.732.438-1.463.626-2.098 1.933-6.538 2.335-7.899 4.211-7.899h.306l.316.098c.525.172.951.541 1.198 1.042.55 1.121.189 2.38-1.915 8.303-.195.551-.419 1.178-.64 1.814a275.68 275.68 0 001.568-1.2c4.623-3.55 5.818-4.378 6.955-4.378a2.023 2.023 0 012.022 2.377c-.21 1.225-1.15 1.958-6.34 5.525-.509.35-1.089.748-1.672 1.153.604-.013 1.228-.03 1.842-.046 1.453-.039 2.957-.079 4.21-.079 2.449 0 4.982 0 4.982 2.296s-2.533 2.296-4.983 2.296c-1.254 0-2.758-.04-4.212-.08-.613-.015-1.237-.032-1.84-.045.584.406 1.165.806 1.674 1.156 5.19 3.566 6.13 4.299 6.34 5.524a2.03 2.03 0 01-2.022 2.377c-1.135 0-2.33-.83-6.952-4.378-.477-.366-1.02-.784-1.571-1.203.221.636.445 1.265.64 1.815 2.102 5.923 2.466 7.182 1.914 8.302-.247.501-.671.87-1.196 1.041l-.29.094-.332.005h-.002c-1.876 0-2.278-1.362-4.211-7.9-.188-.635-.403-1.365-.625-2.095-.221.732-.438 1.462-.625 2.097-1.933 6.535-2.335 7.894-4.209 7.898h-.308z" fill="#fff"/></g><defs><clipPath id="clip0"><path fill="#fff" transform="translate(38.027 40.403)" d="M0 0h35.338v35.338H0z"/></clipPath></defs></svg>