<svg width="25" height="25" fill="none" xmlns="http://www.w3.org/2000/svg"><circle cx="12.5" cy="12.5" r="12" fill="#C8E982" stroke="#151719"/><path fill="#C8E982" d="M5 5h15v15H5z"/><path fill-rule="evenodd" clip-rule="evenodd" d="M18.352 14.22s1.212 1.197 1.512 1.751c.006.008.01.017.014.026.122.205.152.366.092.484-.101.196-.444.294-.56.302h-2.144c-.149 0-.46-.039-.837-.3-.29-.201-.576-.534-.855-.858-.415-.483-.774-.901-1.138-.901a.41.41 0 00-.135.022c-.275.087-.625.48-.625 1.524 0 .327-.258.513-.439.513h-.981c-.335 0-2.076-.117-3.62-1.745-1.893-1.993-3.592-5.992-3.609-6.028-.106-.258.116-.4.356-.4h2.165c.29 0 .385.176.45.334.077.18.36.903.826 1.716.753 1.321 1.215 1.859 1.585 1.859.07 0 .138-.018.198-.053.483-.265.393-1.99.37-2.346 0-.069 0-.77-.248-1.109-.177-.243-.478-.337-.66-.372a.783.783 0 01.285-.242c.33-.165.928-.19 1.521-.19h.33c.643.01.81.051 1.044.11.47.113.48.418.438 1.458a24.44 24.44 0 00-.024 1.025c0 .084-.004.178-.004.273-.014.533-.033 1.134.343 1.38.05.031.105.047.163.047.13 0 .521 0 1.581-1.819.465-.803.825-1.75.85-1.821a.541.541 0 01.16-.197.36.36 0 01.177-.042h2.547c.277 0 .465.042.502.147.062.17-.012.69-1.174 2.262a90.02 90.02 0 01-.519.686c-1.053 1.383-1.053 1.453.063 2.503z" fill="#151719"/></svg>